<?xml version="1.0" encoding="utf-8"?>
<!-- Generator: Adobe Illustrator 24.1.0, SVG Export Plug-In . SVG Version: 6.00 Build 0)  -->
<svg version="1.1" id="图层_1" xmlns="http://www.w3.org/2000/svg" xmlns:xlink="http://www.w3.org/1999/xlink" x="0px" y="0px"
	 viewBox="0 0 400 90" style="enable-background:new 0 0 400 90;" xml:space="preserve">
<style type="text/css">
	.st0{fill-rule:evenodd;clip-rule:evenodd;fill:url(#SVGID_1_);}
	.st1{fill-rule:evenodd;clip-rule:evenodd;fill:#6EC3C1;}
	.st2{fill-rule:evenodd;clip-rule:evenodd;fill:#282C2E;}
	.st3{fill:#6EC3C1;}
</style>
<g>
	<radialGradient id="SVGID_1_" cx="138.0334" cy="1.6813" r="5.6034" gradientUnits="userSpaceOnUse">
		<stop  offset="0" style="stop-color:#FFFCDB"/>
		<stop  offset="0.31" style="stop-color:#FDD000"/>
		<stop  offset="0.67" style="stop-color:#DAB866"/>
		<stop  offset="1" style="stop-color:#7C4E2C"/>
	</radialGradient>
	<path class="st0" d="M138.5,0c2.3,0,4.2,1.9,4.2,4.2c0,2.3-1.9,4.2-4.2,4.2c-2.3,0-4.2-1.9-4.2-4.2C134.3,1.9,136.1,0,138.5,0z"/>
	<path class="st1" d="M23.9,1c22.5,4.5,21.9,31.9,0,36.2v-2.8C35.2,30,38.5,15.3,29,6.3c-1.4-1.3-3.1-2.3-5.1-3V1z M2.5,37.8v-1.1
		c5.1,0.4,5.1-2.3,5.1-6.2V7.4c0-4,0-6.3-5.1-6.1V0.3h15.3C20,0.4,22,0.6,23.9,1v2.4c-2.3-0.7-4.9-1.1-8-1c-1.9,0-2.8,0.7-2.7,2.2
		v27.8c0,2.6,0.1,3.6,3.3,3.4c2.7,0,5.1-0.5,7.3-1.3v2.8c-1.6,0.3-3.4,0.5-5.3,0.6H2.5z"/>
	<path class="st2" d="M64.3,28.5l1.1,0.4c-2.5,6.5-7.5,9.4-12.3,9.2v-3.9C56.9,35.4,61.4,33.8,64.3,28.5L64.3,28.5z M53.2,11.6
		C58.3,11,63.5,14.2,64.3,22H53.2v-1.8h6.3c-0.5-4.6-3.4-6.8-6.3-6.7V11.6z M53.2,38.1c-6.3-0.3-12.1-6-10.6-15.7
		c1-6.4,5.8-10.3,10.6-10.8v2c-2.8,0.1-5.5,2.4-6.3,6.7h6.3V22h-6.5c-0.6,6.4,2.5,10.9,6.5,12.1V38.1z"/>
	<path class="st2" d="M82.3,29.7v-7.2c-1.8,0.6-3.3,1.2-4.6,1.8v-1.2c0.9-0.4,1.9-0.8,3-1.3c0.7-0.3,1.3-0.5,1.5-0.7v-3.3
		c0-3.3-2.4-4.9-4.6-4.9v-1.3c0.3,0,0.5,0,0.8,0c5.9-0.1,8.7,3,8.4,9.1v11.1c-0.1,2.2,0.5,3.4,1.7,3.3c1.1-0.1,2.4-1.4,2.5-1.5
		l-0.2,2.9c-0.6,0.6-1.4,1-2.1,1.3c-2.8,1-6.1,0-6.3-3.5c-1.4,1.1-3,2.1-4.8,2.7v-2.3c1,0,2.1-0.3,3.1-0.9
		C81.8,33.1,82.3,31.6,82.3,29.7z M77.8,24.3c-0.6,0.3-1.1,0.6-1.5,0.9c-1.4,1-2.6,2.6-3,4.4c-0.6,3,1.7,5.2,4.5,5.2V37
		c-0.1,0-0.2,0.1-0.3,0.1c-7.2,2.3-12.4-4.8-6.5-9.9c1.5-1.3,3.8-2.7,6.8-4V24.3L77.8,24.3z M77.8,11.7v1.3c-1.6,0-3,0.7-3.5,2.2
		c-0.3,0.8-0.1,1.5,0.1,2.3c0,0.3,0,0.5,0,0.7c-0.8,3.9-6.6,3-4.6-1.8C70.9,13.5,73.6,11.9,77.8,11.7z"/>
	<path class="st1" d="M112.7,1.2V0.3h13.8v0.9c-2.3-0.1-4.4,0.8-6.4,2.6l-11.8,12.4l13.7,14.2c0.1,0.1,0.4,0.3,0.6,0.7
		c3.2,4.1,5.7,6,7.6,5.5v1.1h-15.6v-1.1c0.9,0,5,0.2,3.3-1.9l-13.9-14.9l-1.4,1.1v9.2c0,3.9-0.2,6.9,4.7,6.5v1.1H92.6v-1.1
		c5.4,0.4,4.7-3.9,4.7-7.8V7c0-3.9-0.4-6-4.7-5.8V0.3h14.9v0.9c-4.6-0.2-4.7,2-4.7,5.8v11c10.8-10.2,18-16.3,10.3-16.8
		C113.2,1.2,113.1,1.2,112.7,1.2z"/>
	<path class="st2" d="M132.5,37.8v-0.9c3.4,0.3,4.9-1.3,4.4-4.9V18.7c0-3.9-1.4-3.5-4.2-3.1v-0.9c1.5-0.4,3.6-1.2,6.4-2.2
		c1-0.4,1.8-0.7,2.4-0.9l0.2,0.2V32c-0.4,3.5,1,5.2,4.2,4.9v0.9H132.5z"/>
	<path class="st2" d="M151.4,32.7V18.5c0-2.7-0.6-3.8-1.8-3.5c-0.4,0-0.9,0.1-1.3,0.2c-0.3,0-0.4,0-0.4,0v-0.9
		c0.6-0.2,1.4-0.4,2.4-0.7c2.4-0.7,4.1-1.4,5.3-2l0.4,0.2v4.4c3.2-3.2,6.1-4.8,8.4-4.7c4.3,0.3,6.5,3.2,6.6,8.6v12.8
		c-0.2,2.5,1,3.8,3.3,3.8v0.9h-11.7v-0.9c2.5,0.2,3.7-1.4,3.5-4.6v-12c0-3.7-1.5-5.5-4.4-5.5c-1.5,0-3.3,1.1-5.5,3.3V34
		c-0.1,1.8,1.1,2.7,3.8,2.9v0.9h-12v-0.9C150.6,37,151.7,35.6,151.4,32.7z"/>
	<path class="st2" d="M186.8,46.5c4.5-0.3,9.1-2.2,9.5-5.6c0.2-1.4-1-2.2-3.5-2.5c-2-0.2-4-0.3-6-0.3v-3.5c0.4,0,0.8,0,1.1,0
		c3.2,0,7.1-0.3,9.1,2.9c1.8,3,0.4,6-2.1,8.2c-2.1,1.8-5,3.1-8.1,3.8V46.5L186.8,46.5z M186.8,28.8v-4.3c3.1-1.4,5.2-4.2,4.7-6.6
		c-0.4-1.9-2.3-3-4.7-3.2v-2.7c1,0.2,2.1,0.4,3.2,0.7c1.4,0.4,2.7,0.8,4.1,0.8h4.2v2.2h-4.7C196.9,21.7,193.6,28,186.8,28.8z
		 M177.3,42.4c0.3,3,4.9,4.4,9.5,4.1v2.8c-6.3,1.3-13-0.2-13.5-5.1c-0.2-2.2,1.8-4.4,5.5-6.4c-1.1-0.3-2.8-1.2-2.9-3.1
		c-0.1-2.1,2.8-4.4,4.9-6.2l0,0c-5.6-2.2-6.4-7.2-4.4-11.1c1.6-3.2,4.9-5.3,8.5-5.3c0.6,0,1.3,0,2,0.1v2.7c-1,0-2.1,0.1-3.3,0.4
		c-3.8,1.2-6.5,4.4-5.9,7c0.6,2.7,4.1,3.9,8,2.7c0.4-0.1,0.8-0.3,1.2-0.5v4.3c-0.1,0-0.2,0-0.3,0c-1.7,0.2-3.4-0.1-5.2,0.9
		c-2.1,1.2-2.6,2.8-0.9,3.8c1.4,0.8,4,0.9,6.5,0.9V38c-2.2,0-4.5,0-6.6-0.3c-0.2,0-0.3,0.1-0.4,0.2
		C177.9,39.8,177.1,41.2,177.3,42.4z"/>
	<path class="st2" d="M284.6,38.9v-0.7c0.8,0,1.6,0,2.6-0.1c-0.1,0.3-0.2,0.5-0.3,0.8C286.1,38.9,285.3,38.9,284.6,38.9L284.6,38.9z
		 M284.6,38v-6.3h0.7v1.9h1.5v0.7h-1.5v1.3h1.8v0.7h-1.8V38H284.6L284.6,38z M284.6,31.1v-0.7h2.4v0.7H284.6L284.6,31.1z
		 M284.6,29.9v-0.8l0.2,0C284.8,29.4,284.7,29.7,284.6,29.9z M284.6,29.1v0.8c-0.1,0.2-0.1,0.3-0.2,0.5h0.2v0.7h-0.4
		c-0.3,0.8-0.6,1.6-0.9,2.4h1.2v-1.9h0.1V38h-0.1v-1.6h-2.4v-0.7h2.4v-1.3h-2.1v-0.7c0.3-0.8,0.6-1.6,0.9-2.4h-1.1v-0.7h1.3
		c0.1-0.5,0.3-0.9,0.4-1.4L284.6,29.1L284.6,29.1z M284.6,38.2c-0.3,0-0.6,0-0.9,0c-0.9,0-1.6-0.4-2-1.1v-4.3H280v0.7h0.9v3.6
		c-0.3,0.3-0.6,0.7-1,1.2v0.5l0.4,0.5c0.5-0.7,0.8-1.2,1-1.5c0.5,0.7,1.3,1.1,2.3,1.1c0.3,0,0.6,0,1,0V38.2L284.6,38.2z M279.9,37.3
		v-0.9l0,0c0.1,0.3,0.1,0.6,0.2,0.8L279.9,37.3L279.9,37.3z M279.9,35.3v-0.7h0.1v0.7H279.9L279.9,35.3z M279.9,31.4v-0.7h0.2v0.7
		H279.9L279.9,31.4z M281.1,29.2c0.4,0.8,0.6,1.6,0.9,2.3c-0.3,0.1-0.6,0.2-0.8,0.3c-0.2-0.7-0.5-1.5-0.8-2.3L281.1,29.2z
		 M279.9,30.7v0.7h-2c-0.3,0.7-0.7,1.4-1,2c-0.1-0.3-0.3-0.5-0.4-0.8c0.6-0.9,1-2.1,1.4-3.6l0.8,0.2c-0.1,0.5-0.3,1-0.4,1.4H279.9
		L279.9,30.7z M279.9,34.6h-1.2v-1.3h1.1v-0.7h-2.3v0.7h0.4v1.3h-1.4v0.7h1.4v2.1c0,0.4-0.1,0.7-0.3,0.9l0.6,0.6
		c0.1-0.2,0.2-0.3,0.3-0.4c0.4-0.3,0.8-0.8,1.4-1.3v-0.9c-0.4,0.3-0.8,0.7-1.2,1.1v-2.2h1.2V34.6L279.9,34.6z M279.9,38.3v0.5
		l-0.2-0.3L279.9,38.3L279.9,38.3z M273.7,38.6v-0.8h1.8v0.8H273.7L273.7,38.6z M273.7,34.8v-2.2c0.2-0.4,0.3-0.8,0.5-1.2l0.9,0.3
		C274.6,32.8,274.1,33.9,273.7,34.8z M273.7,32.6v2.2c-0.2,0.4-0.4,0.8-0.6,1.2l-0.8-0.3C272.9,34.6,273.3,33.6,273.7,32.6
		L273.7,32.6z M273.7,37.8H272v-8.5h-0.9v8.5h-1.9v-8.5h-0.9v8.5h-1.8v0.8h7.2V37.8L273.7,37.8z M266.5,34.8v-2.5
		c0.4,1,0.8,2.1,1.3,3.2l-0.9,0.4C266.8,35.5,266.6,35.2,266.5,34.8z M266.5,32.4v2.5c-0.4-1.1-0.8-2.2-1.3-3.2l0.8-0.3
		C266.2,31.6,266.4,32,266.5,32.4L266.5,32.4z M266.5,37.8v0.8h-1.7v-0.8H266.5L266.5,37.8z M256.5,33.9v-0.7h2.8
		c0.5-0.7,0.9-1.4,1.3-2l0.8,0.5c-0.4,0.5-0.8,1-1.2,1.5h3.2v0.7H256.5L256.5,33.9z M256.5,32.9c0.1,0.1,0.1,0.2,0.2,0.3l0.8-0.5
		c-0.3-0.4-0.6-0.8-1-1.2V32.9L256.5,32.9z M256.5,31v-0.7h1.7c-0.2-0.3-0.3-0.6-0.5-0.9l0.8-0.4c0.2,0.4,0.5,0.8,0.7,1.2h4.5V31
		H256.5z M256.5,30.3V31h-3.2v-0.7H256.5L256.5,30.3z M256.5,31.4v1.5c-0.3-0.4-0.6-0.8-1-1.3l0.7-0.5L256.5,31.4L256.5,31.4z
		 M256.5,33.2v0.7H255v0.7c0,1.2-0.1,2.1-0.3,2.7c-0.2,0.7-0.6,1.3-1.1,1.9c-0.2-0.2-0.4-0.5-0.6-0.7c0.4-0.4,0.7-0.9,0.9-1.5
		c0.2-0.6,0.2-1.4,0.2-2.4v-1.4H256.5L256.5,33.2z M246.7,38.8v-5.7h3.6v0.8h-3.1v1.6h3.5v0.8h-3.5V38h4.5v0.8H246.7L246.7,38.8z
		 M246.7,30.1L246.7,30.1c1.3,1.5,2.9,2.7,4.8,3.6c0.2-0.2,0.4-0.5,0.6-0.8c-2-0.8-3.6-1.9-4.8-3.4l0.2-0.3h-0.8V30.1z M246.7,29.2
		v0.9c-1.1,1.4-2.7,2.6-4.9,3.7c-0.1-0.2-0.3-0.5-0.5-0.8c2.2-1.1,3.9-2.4,5-3.9H246.7L246.7,29.2z M246.7,33.1h-3.5v0.8h3.1v1.6
		h-3.5v0.8h3.5V38h-4.5v0.8h4.9V33.1L246.7,33.1z M237.7,38.9v-0.7c0.8,0,1.6,0,2.6-0.1c-0.1,0.3-0.2,0.5-0.3,0.8
		C239.2,38.9,238.4,38.9,237.7,38.9L237.7,38.9z M237.7,38v-6.3h0.7v1.9h1.5v0.7h-1.5v1.3h1.8v0.7h-1.8V38H237.7L237.7,38z
		 M237.7,31.1v-0.7h2.4v0.7H237.7L237.7,31.1z M237.7,29.9v-0.8l0.2,0C237.9,29.4,237.8,29.7,237.7,29.9z M237.7,29.1v0.8
		c-0.1,0.2-0.1,0.3-0.2,0.5h0.2v0.7h-0.4c-0.3,0.8-0.6,1.6-0.9,2.4h1.2v-1.9h0.1V38h-0.1v-1.6h-2.4v-0.7h2.4v-1.3h-2.1v-0.7
		c0.3-0.8,0.6-1.6,0.9-2.4h-1.1v-0.7h1.3c0.1-0.5,0.3-0.9,0.4-1.4L237.7,29.1L237.7,29.1z M237.7,38.2c-0.3,0-0.6,0-0.9,0
		c-0.9,0-1.6-0.4-2-1.1v-4.3h-1.7v0.7h0.9v3.6c-0.3,0.3-0.6,0.7-1,1.2v0.5l0.4,0.5c0.5-0.7,0.8-1.2,1-1.5c0.5,0.7,1.3,1.1,2.3,1.1
		c0.3,0,0.6,0,1,0V38.2L237.7,38.2z M233,37.3v-0.9l0,0c0.1,0.3,0.1,0.6,0.2,0.8L233,37.3L233,37.3z M233,35.3v-0.7h0.1v0.7H233
		L233,35.3z M233,31.4v-0.7h0.2v0.7H233L233,31.4z M234.2,29.2c0.4,0.8,0.6,1.6,0.9,2.3c-0.3,0.1-0.6,0.2-0.8,0.3
		c-0.2-0.7-0.5-1.5-0.8-2.3L234.2,29.2z M233,30.7v0.7h-2c-0.3,0.7-0.7,1.4-1,2c-0.1-0.3-0.3-0.5-0.4-0.8c0.6-0.9,1-2.1,1.4-3.6
		l0.8,0.2c-0.1,0.5-0.3,1-0.4,1.4H233L233,30.7z M233,34.6h-1.2v-1.3h1.1v-0.7h-2.3v0.7h0.4v1.3h-1.4v0.7h1.4v2.1
		c0,0.4-0.1,0.7-0.3,0.9l0.6,0.6c0.1-0.2,0.2-0.3,0.3-0.4c0.4-0.3,0.8-0.8,1.4-1.3v-0.9c-0.4,0.3-0.8,0.7-1.2,1.1v-2.2h1.2V34.6
		L233,34.6z M233,38.3v0.5l-0.2-0.3L233,38.3L233,38.3z M225.6,37.7v-1.3c0.7,0.9,1.6,1.5,2.8,2c-0.3,0.2-0.5,0.5-0.8,0.8
		C226.8,38.7,226.1,38.2,225.6,37.7L225.6,37.7z M225.6,35v-0.7h1v-2.6h-1V31h1.8v3.4h1.1V35H225.6z M225.6,31v0.7h-0.9
		c0,1.1-0.1,2-0.1,2.6h1V35h-0.7c0.2,0.5,0.4,0.9,0.7,1.3v1.3c-0.6-0.6-1-1.3-1.3-2.1c-0.5,1.4-1.5,2.6-3.2,3.6v-1.1
		c1.3-0.9,2.2-1.9,2.5-3.1h-2.3v-0.7h2.4c0.1-0.6,0.1-1.5,0.1-2.6h-1.9V31h2c0-0.7,0-1.3,0-1.8h0.8c0,0.6,0,1.2,0,1.8H225.6
		L225.6,31z M221.1,36.7l0.7-0.2c0-0.2,0-0.5-0.1-0.8l-0.7,0.2V36.7L221.1,36.7z M221.1,32.4h0.6v-0.7h-0.6V32.4z M212,29.8h4.3v0.8
		H212V29.8L212,29.8z M212,37.8h4.5v0.8H212V37.8L212,37.8z M221.1,31.7v0.7h-0.8v3.7c0.3-0.1,0.6-0.1,0.8-0.2v0.8
		c-1,0.3-1.9,0.5-3,0.8l-0.2-0.8c0.5-0.1,1-0.3,1.6-0.4v-3.9H218v-0.7h1.4v-2.6h0.8v2.6H221.1L221.1,31.7z M221.1,38.1v1.1l-0.1,0.1
		c-0.2-0.3-0.4-0.5-0.6-0.7C220.6,38.4,220.8,38.3,221.1,38.1L221.1,38.1z M212,35v-1.6l0.2,0.2c0.8-0.8,1.5-1.6,2.2-2.5l0.8,0.5
		c-0.8,0.9-1.5,1.8-2.3,2.6c0.9,0.8,1.8,1.6,2.8,2.5l-0.7,0.7c-0.9-0.9-1.8-1.7-2.7-2.6L212,35z M207,29.8h5v0.8h-4.1v7.2h4.1v0.8
		h-5V29.8L207,29.8z M212,33.4c-0.9-0.8-1.8-1.5-2.6-2.2l-0.6,0.5c1,0.8,1.9,1.6,2.8,2.4c-1,1-2.1,1.8-3.2,2.6
		c0.3,0.2,0.5,0.5,0.7,0.7c1-0.7,2-1.5,3-2.5V33.4z"/>
	<path class="st2" d="M275.1,24.9V24h5.2v0.9H275.1L275.1,24.9z M275.1,22.4v-8.2h4.1V15h-3.4v2.2h3.4V18h-3.4v3.6h2.3v-0.5h1.2v0.5
		v0.8H278H275.1L275.1,22.4z M275.1,12.3h5.2c0.3,0,0.5,0.2,0.5,0.5V24h0v0.9h1.6V12.1c0-0.4-0.3-0.7-0.7-0.7h-6.7V12.3L275.1,12.3z
		 M284.4,10.3h1.1c2.1,1.9,3.2,4.4,3.2,7.5c0,3.1-1.1,5.6-3.2,7.5h-1.1c2-2.2,3-4.7,3-7.5C287.4,14.9,286.5,12.3,284.4,10.3z
		 M275.1,11.4v0.9h-5.3c-0.3,0-0.5,0.2-0.5,0.5V24h5.8v0.9h-7.4V12.1c0-0.4,0.3-0.7,0.7-0.7H275.1L275.1,11.4z M275.1,14.2H271V15
		h3.4v2.2H271V18h3.4v3.6H271v0.8h4.1V14.2L275.1,14.2z M261,22.2v-0.9h2.6v-6.4c0-0.3-0.2-0.5-0.5-0.5h-2v-0.9h3.5
		c0.4,0,0.7,0.3,0.7,0.7v8.1H261z M261,13.4v0.9h-2.6v6.9h2.6v0.9h-2.6v3.4h-1.6v-3.4h-2.6v-0.9h2.6v-6.9h-2.6v-0.9h2.6v-3.3h1.6
		v3.3H261z M249.6,25.3h-1.1c-2.1-1.8-3.1-4.3-3.2-7.5c0.1-3.1,1.1-5.6,3.2-7.5h1.1c-2,2.2-3,4.7-3,7.5
		C246.6,20.6,247.6,23.1,249.6,25.3L249.6,25.3z M254.2,13.4v0.9h-2c-0.3,0-0.5,0.2-0.5,0.5v6.4h2.6v0.9H250v-8.1
		c0-0.4,0.3-0.7,0.7-0.7H254.2L254.2,13.4z M219.5,25.6v-1.2h4v1.2H219.5L219.5,25.6z M219.5,22.5v-0.9h1.3v-0.1h0V18h-1.3v-0.9h1.3
		v-2.7c0-0.3-0.3-0.6-0.6-0.6h-0.7v-1h2.3c0.4,0,0.8,0.3,0.8,0.7v9h-0.1h-1.7H219.5L219.5,22.5z M228.6,16.7h12.3
		c0.4,0,0.8,0.3,0.8,0.7v8.1h-1.7v-2.5h-9.8v-1h9.8v-1.6h-9.8v-1h9.8v-1.1c0-0.3-0.3-0.6-0.6-0.6h-9.1c-0.3,0-0.6,0.3-0.6,0.6v7.2
		h-1.7v-8.1C227.9,17.1,228.2,16.7,228.6,16.7L228.6,16.7z M226.4,15.4v-1h2.7v-3.7h1.6v3.7h3.5V9.9h1.6v1.4h5.9v1h-5.9v1.9h7.1v1
		H226.4z M219.5,12.8v1h-1.3v3.3h1.3V18h-1.3v3.6h1.3v0.9h-4.3v-0.9h1.3V18h-1.3v-0.9h1.3v-3.3h-1.3v-1h1.3v-2.7h1.7v2.7H219.5
		L219.5,12.8z M219.5,24.4v1.2h-4.3v-1.2H219.5z M215.3,12.8v1h-0.7c-0.3,0-0.6,0.3-0.6,0.6v2.7h1.3V18H214v3.6h1.3v0.9h-3v-0.7h0
		v-8.3c0-0.4,0.3-0.7,0.8-0.7H215.3L215.3,12.8z M215.3,24.4h-1.7c-1.8,0-2.8-0.9-2.8-2.5v-6.6h-3.6v1h1.8v6.1
		c0.1,1.2-0.5,2.1-1.8,2.7v0.8c1.3-0.4,2.2-1,2.8-1.8c0.6,1,1.7,1.4,3.3,1.4h1.9V24.4L215.3,24.4z M209,10.5h1.4v3.4H209V10.5z"/>
</g>
<g>
	<path class="st3" d="M16,89.5H0.5V55.3h14.7c7.2,0.2,11.1,2.9,11.5,8.2c-0.1,4.3-2.4,7-7,8v0.2c5.2,0.9,8.1,3.6,8.5,8.2
		C28.2,86.3,24.1,89.5,16,89.5z M14.2,59.3H5.7v10.5h8.5c4.6-0.1,6.9-1.9,7-5.5C21.1,61,18.7,59.3,14.2,59.3z M14.9,74H5.7v11.7h9.5
		c4.9,0,7.3-2.1,7.3-6.2C22.3,75.9,19.7,74.1,14.9,74z"/>
	<path class="st3" d="M57.4,89.3h-4.8c-0.7-0.9-1.1-2.3-1.3-4.2c-2,3.1-5.6,4.7-10.7,4.8c-5.1-0.2-7.8-2.5-8-6.8
		c0-4.4,3.1-7.1,9.2-7.8c5.3-0.8,8.4-1.7,9.3-2.7c0.2-3.4-1.8-5.1-6-4.8c-3.9,0-6.2,1.5-6.8,4.5l-4.8-0.8c1.2-5,5.1-7.4,11.7-7.3
		c7.7-0.2,11.3,3.1,11,9.8c0,3,0,6.4,0,10.2C56,86.2,56.5,87.9,57.4,89.3z M51.4,79v-3.2C50,77,47.6,77.9,44,78.3
		c-4.4,0.6-6.6,2.1-6.5,4.7c-0.1,2.4,1.6,3.6,5.2,3.5C48,86.2,50.9,83.7,51.4,79z"/>
	<path class="st3" d="M85.5,89.3h-4.8c-0.7-0.9-1.1-2.3-1.3-4.2c-2,3.1-5.6,4.7-10.7,4.8c-5.1-0.2-7.8-2.5-8-6.8
		c0-4.4,3.1-7.1,9.2-7.8c5.3-0.8,8.4-1.7,9.3-2.7c0.2-3.4-1.8-5.1-6-4.8c-3.9,0-6.2,1.5-6.8,4.5l-4.8-0.8c1.2-5,5.1-7.4,11.7-7.3
		c7.7-0.2,11.3,3.1,11,9.8c0,3,0,6.4,0,10.2C84.2,86.2,84.6,87.9,85.5,89.3z M79.5,79v-3.2c-1.3,1.2-3.8,2.1-7.3,2.5
		c-4.4,0.6-6.6,2.1-6.5,4.7c-0.1,2.4,1.6,3.6,5.2,3.5C76.2,86.2,79.1,83.7,79.5,79z"/>
	<path class="st3" d="M89.2,79.2l5.3-1.2c0.8,5.4,3.9,8.2,9.5,8.2c4.9-0.1,7.4-2.1,7.7-5.8c0.3-2.6-1.9-4.5-6.8-5.8
		c-0.4-0.2-1.4-0.5-2.8-0.8c-0.4-0.1-0.8-0.2-1-0.2c-7.4-1.6-10.9-4.7-10.5-9.5c0.4-5.8,4.5-8.8,12.2-9.2c7.8-0.1,12.3,3,13.7,9.3
		l-5.2,1.2c-0.8-4.1-3.5-6.2-8.2-6.2c-4.3,0.1-6.7,1.7-7,4.8c-0.3,2.6,2.3,4.4,8,5.5c2.2,0.6,3.9,1,5,1.3c5.7,1.8,8.4,4.9,8.3,9.3
		c-0.2,6.3-4.6,9.6-13.2,9.8C95.6,90.2,90.6,86.6,89.2,79.2z"/>
	<path class="st3" d="M161.4,89.5h-26.2V55.3h25.5v4.3h-20.2v10.2h19v4.3h-19v11.2h20.8V89.5z"/>
	<path class="st3" d="M184.4,72.3l13.2,17.2h-6.7l-10-14.3l-10.2,14.3h-6.3l13.2-17.3l-12-16.8h6.5l9,14.2l9-14.2h6.3L184.4,72.3z"
		/>
	<path class="st3" d="M215.6,76.7h-8.7v12.8h-5.3V55.3h14.5c7.7,0.3,11.7,3.8,12.2,10.3C228.1,72.9,223.9,76.5,215.6,76.7z
		 M214.9,59.5h-8v13h8c5.1-0.1,7.7-2.3,7.8-6.7C222.5,61.7,219.9,59.6,214.9,59.5z"/>
	<path class="st3" d="M257.2,89.5h-23.3V55.3h5.2v30.2h18.2V89.5z"/>
	<path class="st3" d="M277.9,54.8c10.3,0.7,15.9,6.6,16.7,17.8c-0.6,11-6.2,16.8-16.8,17.3c-10.7-0.6-16.2-6.3-16.7-17.3
		C261.6,61.3,267.2,55.4,277.9,54.8z M277.6,85.8c7.1-0.3,10.8-4.7,11.2-13.2c-0.3-8.3-4-12.8-11-13.3c-7,0.6-10.7,5-11.2,13.3
		C266.9,80.9,270.6,85.3,277.6,85.8z"/>
	<path class="st3" d="M330.8,89.5h-6.7l-10.5-14.2h-7.8v14.2h-5.2V55.3h15.8c7.7,0.2,11.7,3.5,12.2,9.8c0,5.8-3.2,9.1-9.5,9.8
		L330.8,89.5z M305.7,59.5v11.7h9.5c5.3,0,7.9-1.9,7.8-5.8c0-3.9-2.6-5.8-7.8-5.8H305.7z"/>
	<path class="st3" d="M361.1,89.5h-26.2V55.3h25.5v4.3h-20.2v10.2h19v4.3h-19v11.2h20.8V89.5z"/>
	<path class="st3" d="M397.8,89.5h-6.7l-10.5-14.2h-7.8v14.2h-5.2V55.3h15.8c7.7,0.2,11.7,3.5,12.2,9.8c0,5.8-3.2,9.1-9.5,9.8
		L397.8,89.5z M372.8,59.5v11.7h9.5c5.3,0,7.9-1.9,7.8-5.8c0-3.9-2.6-5.8-7.8-5.8H372.8z"/>
</g>
</svg>
