<svg id="svg" version="1.1" width="400" height="89.94082840236686" xmlns="http://www.w3.org/2000/svg" xmlns:xlink="http://www.w3.org/1999/xlink" style="display: block;"><g id="svgg"><path id="path0" d="M279.508 8.190 C 279.008 8.273,278.558 8.404,278.508 8.483 C 278.458 8.561,278.173 8.678,277.875 8.742 C 277.577 8.807,277.333 8.923,277.333 9.000 C 277.333 9.077,277.108 9.190,276.833 9.250 C 276.558 9.310,276.333 9.429,276.333 9.513 C 276.333 9.598,276.240 9.668,276.125 9.669 C 275.605 9.674,273.334 11.944,273.334 12.458 C 273.333 12.573,273.266 12.667,273.185 12.667 C 273.103 12.667,272.987 12.863,272.927 13.103 C 272.866 13.344,272.718 13.639,272.598 13.759 C 272.478 13.879,272.328 14.299,272.265 14.692 C 272.202 15.085,272.061 15.462,271.950 15.531 C 271.687 15.693,271.664 21.454,271.926 21.631 C 272.023 21.696,272.204 22.181,272.328 22.708 C 272.452 23.235,272.616 23.667,272.693 23.667 C 272.770 23.667,272.833 23.774,272.833 23.905 C 272.833 24.036,272.927 24.242,273.042 24.363 C 273.156 24.484,273.358 24.792,273.489 25.047 C 273.781 25.612,275.164 27.000,275.435 27.000 C 275.543 27.000,275.674 27.113,275.727 27.250 C 275.780 27.387,275.931 27.500,276.064 27.500 C 276.197 27.500,276.331 27.559,276.361 27.632 C 276.474 27.901,277.604 28.476,278.250 28.593 C 278.617 28.660,278.970 28.798,279.036 28.899 C 279.195 29.146,286.961 29.158,287.131 28.911 C 287.197 28.816,287.727 28.643,288.311 28.526 C 288.894 28.408,289.494 28.253,289.644 28.181 C 289.794 28.108,290.198 27.914,290.542 27.748 L 291.167 27.448 291.167 21.974 L 291.167 16.500 287.083 16.500 L 283.000 16.500 283.000 18.750 L 283.000 21.000 284.750 21.000 L 286.500 21.000 286.500 22.481 L 286.500 23.963 285.929 24.070 C 285.615 24.129,285.327 24.269,285.290 24.380 C 285.199 24.653,280.543 24.670,280.369 24.397 C 280.304 24.295,280.071 24.156,279.852 24.087 C 279.147 23.867,277.333 21.845,277.333 21.280 C 277.333 21.141,277.240 20.997,277.125 20.958 C 276.847 20.866,276.826 16.379,277.103 16.202 C 277.205 16.137,277.345 15.902,277.415 15.679 C 277.561 15.210,277.676 15.057,278.615 14.075 C 278.999 13.673,279.505 13.297,279.740 13.238 C 279.975 13.179,280.167 13.065,280.167 12.984 C 280.167 12.903,280.467 12.789,280.833 12.731 C 281.200 12.672,281.500 12.559,281.500 12.479 C 281.500 12.399,282.100 12.333,282.833 12.333 C 283.567 12.333,284.167 12.399,284.167 12.479 C 284.167 12.559,284.410 12.672,284.708 12.730 C 285.333 12.851,286.333 13.348,286.333 13.538 C 286.333 13.609,286.445 13.667,286.582 13.667 C 286.719 13.667,286.924 13.817,287.039 14.000 C 287.153 14.183,287.310 14.333,287.386 14.333 C 287.564 14.333,290.000 11.927,290.000 11.752 C 290.000 11.680,290.188 11.448,290.417 11.235 C 290.947 10.744,290.941 10.548,290.375 10.056 C 289.618 9.398,289.546 9.351,289.098 9.239 C 288.861 9.179,288.667 9.070,288.667 8.995 C 288.667 8.921,288.423 8.808,288.125 8.744 C 287.827 8.680,287.502 8.563,287.404 8.484 C 286.864 8.051,281.539 7.853,279.508 8.190 M293.833 13.667 C 293.833 17.333,293.892 19.333,294.000 19.333 C 294.107 19.333,294.167 20.944,294.167 23.833 L 294.167 28.333 301.333 28.333 L 308.500 28.333 308.500 26.083 L 308.500 23.833 303.667 23.833 L 298.833 23.833 298.833 22.000 L 298.833 20.167 303.167 20.167 L 307.500 20.167 307.500 17.917 L 307.500 15.667 303.167 15.667 L 298.833 15.667 298.833 14.000 L 298.833 12.333 303.417 12.333 L 308.000 12.333 308.000 10.167 L 308.000 8.000 300.917 8.000 L 293.833 8.000 293.833 13.667 M311.168 16.542 C 311.168 21.240,311.217 25.817,311.276 26.713 L 311.384 28.342 313.734 28.296 L 316.083 28.250 316.128 24.375 L 316.173 20.500 317.068 20.500 C 317.885 20.500,317.973 20.537,318.068 20.917 C 318.126 21.146,318.241 21.333,318.323 21.333 C 318.406 21.333,318.523 21.558,318.583 21.833 C 318.644 22.108,318.762 22.333,318.847 22.333 C 318.931 22.333,319.000 22.436,319.000 22.561 C 319.000 22.686,319.145 22.973,319.323 23.199 C 319.501 23.425,319.696 23.810,319.758 24.055 C 319.819 24.300,319.936 24.500,320.018 24.500 C 320.100 24.500,320.167 24.607,320.167 24.738 C 320.167 24.869,320.268 25.077,320.392 25.201 C 320.515 25.325,320.707 25.699,320.817 26.033 C 320.927 26.367,321.126 26.730,321.259 26.840 C 321.391 26.951,321.500 27.144,321.500 27.270 C 321.500 27.397,321.567 27.500,321.649 27.500 C 321.730 27.500,321.844 27.688,321.902 27.917 L 322.006 28.333 324.837 28.333 C 327.614 28.333,327.667 28.327,327.667 27.978 C 327.667 27.660,327.100 26.547,326.829 26.333 C 326.771 26.287,326.617 26.006,326.488 25.708 C 326.358 25.410,326.195 25.167,326.126 25.167 C 326.057 25.167,326.000 25.052,326.000 24.911 C 326.000 24.771,325.892 24.615,325.760 24.564 C 325.628 24.514,325.472 24.254,325.414 23.987 C 325.355 23.720,325.218 23.445,325.108 23.376 C 324.999 23.307,324.818 23.063,324.706 22.833 C 324.452 22.314,324.143 21.830,323.886 21.548 C 323.777 21.429,323.636 21.167,323.572 20.965 C 323.508 20.764,323.372 20.504,323.270 20.389 C 322.635 19.672,322.633 19.667,323.082 19.667 C 324.624 19.667,326.662 17.511,326.666 15.875 C 326.666 15.669,326.742 15.500,326.833 15.500 C 326.931 15.500,327.000 14.944,327.000 14.167 C 327.000 13.389,326.931 12.833,326.833 12.833 C 326.742 12.833,326.667 12.620,326.667 12.358 C 326.667 11.765,326.351 10.833,326.150 10.833 C 326.068 10.833,326.000 10.726,326.000 10.594 C 326.000 10.314,324.841 9.170,324.556 9.168 C 324.449 9.167,324.336 9.110,324.306 9.042 C 323.961 8.267,321.878 8.002,316.125 8.001 L 311.167 8.000 311.168 16.542 M119.667 14.135 C 119.667 17.331,119.716 21.983,119.777 24.473 L 119.887 29.000 120.360 29.000 C 120.620 29.000,120.833 28.925,120.833 28.833 C 120.833 28.732,121.583 28.667,122.750 28.667 L 124.667 28.667 124.667 24.417 L 124.667 20.167 128.667 20.167 L 132.667 20.167 132.667 24.417 L 132.667 28.667 135.167 28.667 L 137.667 28.667 137.667 18.500 L 137.667 8.333 135.167 8.333 L 132.667 8.333 132.667 12.000 L 132.667 15.667 128.670 15.667 L 124.673 15.667 124.628 12.042 L 124.583 8.417 122.125 8.371 L 119.667 8.324 119.667 14.135 M140.333 8.659 C 140.333 9.071,140.675 9.833,140.860 9.833 C 140.937 9.833,141.000 9.948,141.000 10.089 C 141.000 10.229,141.112 10.387,141.250 10.440 C 141.387 10.492,141.500 10.604,141.500 10.688 C 141.500 10.859,142.302 12.130,142.625 12.470 C 142.739 12.591,142.833 12.798,142.833 12.929 C 142.833 13.060,142.910 13.167,143.004 13.167 C 143.098 13.167,143.246 13.354,143.333 13.583 C 143.420 13.813,143.569 14.000,143.663 14.000 C 143.756 14.000,143.833 14.097,143.833 14.216 C 143.833 14.335,143.946 14.579,144.083 14.758 C 144.559 15.377,145.167 16.349,145.167 16.490 C 145.167 16.567,145.279 16.674,145.417 16.727 C 145.554 16.780,145.667 16.938,145.667 17.078 C 145.667 17.218,145.733 17.333,145.813 17.333 C 145.894 17.333,146.053 17.558,146.167 17.833 C 146.281 18.108,146.440 18.333,146.520 18.333 C 146.601 18.333,146.667 18.448,146.667 18.589 C 146.667 18.729,146.779 18.887,146.917 18.940 C 147.054 18.992,147.167 19.136,147.167 19.260 C 147.167 19.383,147.298 19.557,147.458 19.646 C 147.723 19.794,147.755 20.224,147.799 24.238 L 147.849 28.667 150.341 28.667 L 152.833 28.667 152.833 25.083 C 152.833 22.806,152.773 21.500,152.667 21.500 C 152.390 21.500,152.467 20.215,152.750 20.106 C 152.887 20.054,153.000 19.896,153.000 19.755 C 153.000 19.615,153.066 19.500,153.146 19.500 C 153.227 19.500,153.386 19.275,153.500 19.000 C 153.614 18.725,153.761 18.500,153.826 18.500 C 153.892 18.500,154.154 18.088,154.409 17.583 C 154.664 17.079,154.939 16.667,155.020 16.667 C 155.101 16.667,155.167 16.558,155.167 16.425 C 155.167 16.292,155.260 16.123,155.375 16.050 C 155.576 15.921,155.926 15.374,156.366 14.500 C 156.482 14.271,156.672 14.023,156.788 13.950 C 156.905 13.877,157.000 13.708,157.000 13.575 C 157.000 13.442,157.075 13.333,157.167 13.333 C 157.258 13.333,157.333 13.253,157.333 13.156 C 157.333 13.058,157.521 12.732,157.750 12.431 C 157.979 12.131,158.167 11.805,158.167 11.706 C 158.167 11.608,158.223 11.503,158.292 11.472 C 158.484 11.387,159.167 10.369,159.167 10.168 C 159.167 10.070,159.272 9.949,159.402 9.899 C 159.531 9.850,159.687 9.609,159.748 9.365 C 159.810 9.120,159.938 8.871,160.035 8.812 C 160.589 8.469,159.821 8.333,157.325 8.333 C 154.586 8.333,154.000 8.472,154.000 9.120 C 154.000 9.238,153.939 9.333,153.864 9.333 C 153.790 9.333,153.626 9.596,153.500 9.917 C 153.374 10.237,153.210 10.500,153.136 10.500 C 153.061 10.500,153.000 10.601,153.000 10.724 C 153.000 10.848,152.850 11.122,152.667 11.333 C 152.483 11.545,152.333 11.807,152.333 11.917 C 152.333 12.026,152.183 12.289,152.000 12.500 C 151.817 12.711,151.667 12.985,151.667 13.109 C 151.667 13.232,151.601 13.333,151.521 13.333 C 151.441 13.333,151.159 13.782,150.896 14.331 C 150.445 15.269,150.000 15.643,150.000 15.083 C 150.000 14.946,149.925 14.833,149.833 14.833 C 149.742 14.833,149.667 14.726,149.667 14.595 C 149.667 14.464,149.560 14.250,149.429 14.120 C 149.298 13.989,149.075 13.627,148.932 13.316 C 148.643 12.684,148.307 12.127,148.138 11.998 C 148.077 11.952,147.976 11.713,147.915 11.469 C 147.853 11.224,147.705 10.986,147.584 10.940 C 147.463 10.894,147.314 10.626,147.252 10.345 C 147.191 10.063,147.071 9.833,146.987 9.833 C 146.902 9.833,146.833 9.718,146.833 9.578 C 146.833 9.438,146.728 9.282,146.598 9.233 C 146.469 9.183,146.318 8.960,146.262 8.738 L 146.160 8.333 143.247 8.333 C 140.468 8.333,140.333 8.348,140.333 8.659 M162.778 8.444 C 162.717 8.506,162.667 13.081,162.667 18.611 L 162.667 28.667 165.167 28.667 L 167.667 28.667 167.667 24.833 L 167.667 21.000 170.417 21.000 C 171.929 21.000,173.167 20.935,173.167 20.857 C 173.167 20.778,173.555 20.667,174.029 20.611 C 174.503 20.555,174.935 20.442,174.987 20.360 C 175.040 20.278,175.262 20.156,175.481 20.087 C 175.826 19.979,176.793 19.091,177.462 18.267 C 177.578 18.124,177.721 17.761,177.780 17.462 C 177.838 17.162,177.964 16.865,178.061 16.802 C 178.313 16.637,178.282 12.622,178.027 12.537 C 177.921 12.501,177.833 12.301,177.833 12.092 C 177.833 11.883,177.683 11.521,177.500 11.288 C 177.317 11.055,177.167 10.799,177.167 10.719 C 177.167 10.499,176.165 9.667,175.900 9.667 C 175.771 9.667,175.667 9.593,175.667 9.503 C 175.667 9.413,175.479 9.293,175.250 9.235 C 175.021 9.178,174.833 9.067,174.833 8.990 C 174.833 8.913,174.383 8.799,173.833 8.737 C 173.283 8.675,172.833 8.558,172.833 8.478 C 172.833 8.311,162.945 8.277,162.778 8.444 M180.778 8.444 C 180.596 8.627,180.648 11.667,180.833 11.667 C 180.942 11.667,181.000 14.611,181.000 20.167 L 181.000 28.667 188.167 28.667 L 195.333 28.667 195.333 26.417 L 195.333 24.167 190.500 24.167 L 185.667 24.167 185.667 22.417 L 185.667 20.667 190.083 20.667 L 194.500 20.667 194.500 18.417 L 194.500 16.167 190.083 16.167 L 185.667 16.167 185.667 14.500 L 185.667 12.833 190.250 12.833 L 194.833 12.833 194.833 10.583 L 194.833 8.333 187.861 8.333 C 184.026 8.333,180.839 8.383,180.778 8.444 M198.074 8.516 C 198.012 8.616,198.017 13.191,198.085 18.682 L 198.209 28.667 200.604 28.667 L 203.000 28.667 203.000 24.833 L 203.000 21.000 203.845 21.000 C 204.768 21.000,204.985 21.141,205.319 21.958 C 205.441 22.256,205.600 22.500,205.674 22.500 C 205.747 22.500,205.856 22.725,205.917 23.000 C 205.977 23.275,206.090 23.500,206.167 23.500 C 206.244 23.500,206.356 23.725,206.417 24.000 C 206.477 24.275,206.584 24.500,206.653 24.500 C 206.723 24.500,206.879 24.800,207.000 25.167 C 207.121 25.533,207.278 25.833,207.349 25.833 C 207.420 25.833,207.530 25.999,207.594 26.201 C 207.658 26.403,207.813 26.670,207.939 26.796 C 208.064 26.921,208.167 27.131,208.167 27.262 C 208.167 27.393,208.231 27.500,208.309 27.500 C 208.388 27.500,208.522 27.744,208.607 28.042 L 208.762 28.583 211.631 28.629 L 214.500 28.675 214.500 28.266 C 214.500 28.041,214.402 27.758,214.281 27.637 C 214.161 27.516,213.955 27.173,213.824 26.875 C 213.693 26.577,213.529 26.333,213.459 26.333 C 213.390 26.333,213.333 26.218,213.333 26.078 C 213.333 25.938,213.225 25.781,213.094 25.731 C 212.962 25.680,212.806 25.421,212.747 25.154 C 212.689 24.887,212.551 24.612,212.442 24.543 C 212.332 24.473,212.151 24.229,212.039 24.000 C 211.818 23.547,211.466 22.966,211.333 22.833 C 211.287 22.787,211.137 22.525,211.000 22.250 C 210.862 21.975,210.675 21.659,210.583 21.547 C 210.492 21.436,210.332 21.243,210.229 21.118 C 209.742 20.530,209.799 20.210,210.412 20.095 C 210.735 20.035,211.000 19.932,211.000 19.866 C 211.000 19.801,211.236 19.643,211.525 19.516 C 212.304 19.171,212.669 18.740,213.374 17.333 C 213.819 16.446,213.953 12.345,213.542 12.208 C 213.427 12.170,213.333 12.010,213.333 11.853 C 213.333 11.345,211.866 9.667,211.422 9.667 C 211.282 9.667,211.167 9.597,211.167 9.511 C 211.167 9.426,210.998 9.303,210.792 9.239 C 210.585 9.174,210.372 9.053,210.318 8.968 C 210.263 8.884,209.795 8.771,209.276 8.717 C 208.758 8.664,208.333 8.556,208.333 8.477 C 208.333 8.256,198.211 8.294,198.074 8.516 M217.167 18.496 L 217.167 28.667 223.667 28.667 L 230.167 28.667 230.167 26.417 L 230.167 24.167 226.168 24.167 L 222.170 24.167 222.127 16.292 L 222.083 8.417 219.625 8.371 L 217.167 8.324 217.167 18.496 M232.890 14.361 C 232.950 17.676,233.000 22.251,233.000 24.527 L 233.000 28.667 240.250 28.667 L 247.500 28.667 247.500 26.417 L 247.500 24.167 242.667 24.167 L 237.833 24.167 237.833 22.417 L 237.833 20.667 242.167 20.667 L 246.500 20.667 246.500 18.417 L 246.500 16.167 242.167 16.167 L 237.833 16.167 237.833 14.500 L 237.833 12.833 242.417 12.833 L 247.000 12.833 247.000 10.583 L 247.000 8.333 239.890 8.333 L 232.779 8.333 232.890 14.361 M250.111 8.444 C 249.925 8.631,249.979 22.634,250.167 22.750 C 250.268 22.812,250.333 24.006,250.333 25.774 L 250.333 28.695 255.625 28.627 C 260.896 28.559,262.793 28.327,263.333 27.683 C 263.379 27.628,263.786 27.396,264.237 27.167 C 265.143 26.706,267.333 24.736,267.333 24.381 C 267.333 24.257,267.441 24.115,267.573 24.064 C 267.705 24.014,267.861 23.753,267.920 23.486 C 267.978 23.219,268.090 23.000,268.167 23.000 C 268.244 23.000,268.360 22.756,268.424 22.458 C 268.489 22.160,268.626 21.863,268.729 21.798 C 268.991 21.632,268.989 15.474,268.728 15.151 C 268.624 15.022,268.486 14.673,268.423 14.375 C 268.359 14.077,268.254 13.833,268.190 13.833 C 268.126 13.833,267.981 13.627,267.868 13.375 C 267.755 13.123,267.569 12.759,267.454 12.567 C 267.162 12.079,265.571 10.500,265.372 10.500 C 265.281 10.500,265.114 10.388,265.001 10.251 C 264.887 10.114,264.503 9.914,264.147 9.808 C 263.791 9.701,263.500 9.557,263.500 9.488 C 263.500 9.419,263.200 9.312,262.833 9.250 C 262.467 9.188,262.167 9.074,262.167 8.995 C 262.167 8.917,261.640 8.802,260.996 8.738 C 260.353 8.675,259.786 8.558,259.736 8.478 C 259.633 8.310,250.278 8.278,250.111 8.444 M79.833 19.061 C 79.833 25.984,79.842 26.167,80.157 26.167 C 80.335 26.167,80.521 26.100,80.572 26.019 C 80.622 25.938,80.926 25.822,81.248 25.761 C 81.570 25.701,81.833 25.589,81.833 25.513 C 81.833 25.437,82.058 25.330,82.333 25.275 C 82.608 25.220,83.167 25.023,83.574 24.838 C 83.982 24.652,84.394 24.500,84.491 24.500 C 84.588 24.500,84.667 24.434,84.667 24.354 C 84.667 24.274,84.892 24.163,85.167 24.108 C 85.442 24.053,86.000 23.856,86.408 23.671 C 86.815 23.485,87.265 23.333,87.408 23.333 C 87.550 23.333,87.667 23.262,87.667 23.174 C 87.667 23.087,87.929 22.966,88.250 22.906 C 88.571 22.845,88.833 22.737,88.833 22.665 C 88.833 22.592,89.208 22.443,89.667 22.333 C 90.125 22.223,90.500 22.074,90.500 22.002 C 90.500 21.930,90.763 21.821,91.083 21.761 C 91.404 21.701,91.667 21.587,91.667 21.509 C 91.667 21.431,92.042 21.277,92.500 21.167 C 92.958 21.057,93.333 20.908,93.333 20.835 C 93.333 20.763,93.596 20.655,93.917 20.594 C 94.237 20.534,94.500 20.413,94.500 20.326 C 94.500 20.238,94.682 20.167,94.905 20.167 C 95.127 20.167,95.409 20.067,95.531 19.946 C 95.652 19.824,95.976 19.680,96.251 19.624 C 97.872 19.299,98.207 18.641,96.917 18.316 C 96.504 18.212,96.167 18.068,96.167 17.995 C 96.167 17.922,95.867 17.812,95.500 17.750 C 95.133 17.688,94.833 17.576,94.833 17.502 C 94.833 17.428,94.458 17.277,94.000 17.167 C 93.542 17.057,93.167 16.899,93.167 16.817 C 93.167 16.734,93.035 16.666,92.875 16.666 C 92.715 16.665,92.374 16.555,92.118 16.422 C 91.862 16.288,91.393 16.130,91.076 16.071 C 90.759 16.012,90.500 15.904,90.500 15.831 C 90.500 15.759,90.125 15.610,89.667 15.500 C 89.208 15.390,88.833 15.241,88.833 15.169 C 88.833 15.096,88.571 14.988,88.250 14.928 C 87.929 14.867,87.667 14.755,87.667 14.678 C 87.667 14.600,87.389 14.485,87.050 14.421 C 86.711 14.358,86.282 14.199,86.096 14.070 C 85.911 13.940,85.645 13.833,85.505 13.832 C 85.365 13.832,85.041 13.722,84.785 13.589 C 84.529 13.455,84.060 13.297,83.743 13.238 C 83.426 13.178,83.167 13.072,83.167 13.001 C 83.167 12.931,82.811 12.783,82.377 12.674 C 81.943 12.565,81.545 12.406,81.493 12.322 C 81.441 12.238,81.046 12.121,80.616 12.062 L 79.833 11.955 79.833 19.061 M320.798 12.429 C 320.863 12.527,321.048 12.656,321.208 12.715 C 321.369 12.774,321.500 12.938,321.500 13.078 C 321.500 13.218,321.575 13.333,321.667 13.333 C 321.758 13.333,321.833 13.681,321.833 14.106 C 321.833 14.886,321.781 14.966,320.685 15.866 C 320.551 15.976,319.552 16.089,318.310 16.134 L 316.167 16.211 316.167 14.176 L 316.167 12.141 318.423 12.195 C 319.784 12.228,320.727 12.321,320.798 12.429 M29.667 19.189 L 29.667 25.877 30.357 25.785 C 30.737 25.734,31.093 25.624,31.149 25.542 C 31.205 25.459,31.606 25.294,32.042 25.174 C 32.477 25.055,32.833 24.900,32.833 24.830 C 32.833 24.761,33.096 24.655,33.417 24.594 C 33.737 24.534,34.000 24.419,34.000 24.339 C 34.000 24.259,34.244 24.140,34.542 24.074 C 34.840 24.009,35.345 23.816,35.664 23.644 C 35.984 23.473,36.377 23.333,36.539 23.333 C 36.701 23.333,36.833 23.264,36.833 23.180 C 36.833 23.096,37.058 22.977,37.333 22.917 C 37.608 22.856,37.833 22.747,37.833 22.674 C 37.833 22.601,38.058 22.497,38.333 22.442 C 38.608 22.387,39.167 22.190,39.574 22.004 C 39.982 21.819,40.394 21.667,40.491 21.667 C 40.588 21.667,40.667 21.607,40.667 21.535 C 40.667 21.462,41.004 21.312,41.417 21.202 C 41.829 21.092,42.167 20.926,42.167 20.834 C 42.167 20.742,42.321 20.667,42.509 20.667 C 42.697 20.667,43.128 20.521,43.467 20.343 C 44.311 19.900,45.630 19.333,45.818 19.333 C 46.116 19.333,46.998 18.748,46.999 18.549 C 47.000 18.439,46.737 18.299,46.417 18.239 C 46.096 18.179,45.833 18.068,45.833 17.992 C 45.833 17.916,45.496 17.803,45.083 17.741 C 44.671 17.679,44.333 17.568,44.333 17.493 C 44.333 17.418,43.921 17.265,43.417 17.152 C 42.913 17.039,42.500 16.888,42.500 16.817 C 42.500 16.746,42.162 16.636,41.750 16.575 C 41.337 16.513,41.000 16.399,41.000 16.322 C 41.000 16.245,40.737 16.133,40.417 16.072 C 40.096 16.012,39.833 15.906,39.833 15.838 C 39.833 15.769,39.383 15.617,38.833 15.500 C 38.283 15.383,37.833 15.224,37.833 15.146 C 37.833 15.068,37.533 14.956,37.167 14.897 C 36.800 14.839,36.500 14.732,36.500 14.660 C 36.500 14.588,36.200 14.479,35.833 14.417 C 35.467 14.355,35.167 14.243,35.167 14.169 C 35.167 14.094,34.773 13.941,34.292 13.828 C 33.810 13.715,33.342 13.565,33.250 13.493 C 33.158 13.422,32.802 13.311,32.458 13.246 C 32.115 13.182,31.833 13.072,31.833 13.001 C 31.833 12.857,30.535 12.500,30.010 12.500 C 29.669 12.500,29.667 12.549,29.667 19.189 M171.959 12.958 C 171.997 13.073,172.129 13.167,172.253 13.167 C 172.633 13.167,173.167 14.092,173.167 14.751 C 173.167 15.594,172.283 16.494,171.330 16.622 C 170.961 16.671,170.618 16.777,170.569 16.856 C 170.520 16.935,169.847 17.000,169.073 17.000 L 167.667 17.000 167.667 14.820 L 167.667 12.639 169.778 12.695 C 171.278 12.734,171.909 12.810,171.959 12.958 M207.759 13.022 C 209.034 13.659,209.014 16.167,207.735 16.167 C 207.621 16.167,207.499 16.253,207.464 16.359 C 207.421 16.487,206.652 16.579,205.200 16.631 L 203.000 16.711 203.000 14.689 L 203.000 12.667 205.023 12.667 C 206.755 12.667,207.149 12.718,207.759 13.022 M258.833 12.978 C 258.833 13.058,259.132 13.163,259.497 13.212 C 260.357 13.327,261.625 13.941,262.219 14.530 C 262.476 14.786,262.776 15.052,262.885 15.122 C 263.712 15.655,264.402 20.029,263.729 20.467 C 263.631 20.531,263.497 20.808,263.430 21.083 C 263.292 21.652,261.748 23.233,261.148 23.421 C 260.929 23.489,260.711 23.605,260.663 23.679 C 260.511 23.914,258.477 24.164,256.708 24.165 L 255.000 24.167 255.000 18.500 L 255.000 12.833 256.917 12.833 C 257.971 12.833,258.833 12.898,258.833 12.978 M4.333 47.408 C 4.333 74.530,4.311 73.667,5.005 73.667 C 5.112 73.667,5.436 73.774,5.725 73.905 C 7.330 74.632,7.882 74.851,8.333 74.942 C 8.608 74.997,8.833 75.101,8.833 75.174 C 8.833 75.247,9.077 75.360,9.375 75.425 C 9.673 75.490,10.065 75.646,10.245 75.771 C 10.426 75.897,10.740 76.000,10.942 76.000 C 11.144 76.000,11.422 76.112,11.560 76.250 C 11.697 76.387,11.948 76.500,12.118 76.500 C 12.287 76.500,12.574 76.603,12.755 76.729 C 12.935 76.854,13.327 77.010,13.625 77.075 C 13.923 77.140,14.167 77.250,14.167 77.320 C 14.167 77.390,14.579 77.546,15.083 77.667 C 15.588 77.788,16.000 77.946,16.000 78.019 C 16.000 78.092,16.263 78.201,16.583 78.261 C 16.904 78.321,17.167 78.430,17.167 78.502 C 17.167 78.574,17.542 78.723,18.000 78.833 C 18.458 78.943,18.833 79.092,18.833 79.165 C 18.833 79.237,19.096 79.345,19.417 79.406 C 19.737 79.466,20.000 79.587,20.000 79.674 C 20.000 79.762,20.132 79.833,20.294 79.833 C 20.456 79.833,20.850 79.973,21.169 80.144 C 21.489 80.316,21.994 80.509,22.292 80.574 C 22.590 80.640,22.833 80.762,22.833 80.847 C 22.833 80.931,22.950 81.000,23.092 81.000 C 23.235 81.000,23.695 81.156,24.114 81.347 C 24.533 81.538,25.129 81.736,25.438 81.786 L 26.000 81.877 26.000 56.025 L 26.000 30.173 25.583 30.068 C 25.354 30.011,25.167 29.905,25.167 29.834 C 25.167 29.762,24.904 29.655,24.583 29.594 C 24.262 29.534,24.000 29.413,24.000 29.326 C 24.000 29.238,23.883 29.167,23.741 29.167 C 23.598 29.167,23.148 29.015,22.741 28.829 C 22.333 28.644,21.775 28.447,21.500 28.392 C 21.225 28.337,21.000 28.232,21.000 28.159 C 21.000 28.086,20.756 27.973,20.458 27.909 C 20.160 27.844,19.769 27.688,19.588 27.562 C 19.407 27.436,19.120 27.333,18.951 27.333 C 18.782 27.333,18.530 27.221,18.393 27.083 C 18.255 26.946,17.977 26.833,17.775 26.833 C 17.573 26.833,17.260 26.730,17.079 26.605 C 16.898 26.479,16.506 26.323,16.208 26.258 C 15.910 26.193,15.667 26.083,15.667 26.013 C 15.667 25.944,15.254 25.788,14.750 25.667 C 14.246 25.546,13.833 25.387,13.833 25.314 C 13.833 25.241,13.571 25.133,13.250 25.072 C 12.929 25.012,12.667 24.900,12.667 24.822 C 12.667 24.745,12.404 24.633,12.083 24.572 C 11.762 24.512,11.500 24.404,11.500 24.331 C 11.500 24.259,11.125 24.110,10.667 24.000 C 10.208 23.890,9.833 23.733,9.833 23.650 C 9.833 23.568,9.717 23.500,9.574 23.500 C 9.432 23.500,8.982 23.348,8.574 23.162 C 8.167 22.977,7.590 22.776,7.292 22.717 C 6.995 22.657,6.652 22.509,6.531 22.388 C 6.409 22.266,6.134 22.167,5.919 22.167 C 5.704 22.167,5.503 22.093,5.472 22.004 C 5.442 21.914,5.173 21.792,4.875 21.733 L 4.333 21.625 4.333 47.408 M54.833 47.387 L 54.833 73.152 55.417 73.261 C 55.737 73.321,56.000 73.431,56.000 73.505 C 56.000 73.579,56.225 73.690,56.500 73.750 C 56.775 73.810,57.000 73.921,57.000 73.995 C 57.000 74.069,57.262 74.179,57.583 74.239 C 57.904 74.299,58.167 74.406,58.167 74.476 C 58.167 74.546,58.542 74.700,59.000 74.817 C 59.458 74.935,59.833 75.091,59.833 75.164 C 59.833 75.237,60.096 75.345,60.417 75.406 C 60.737 75.466,61.000 75.573,61.000 75.643 C 61.000 75.713,61.375 75.866,61.833 75.984 C 62.292 76.101,62.667 76.257,62.667 76.330 C 62.667 76.403,62.929 76.512,63.250 76.572 C 63.571 76.633,63.833 76.750,63.833 76.833 C 63.833 76.917,64.096 77.034,64.417 77.094 C 64.737 77.155,65.000 77.263,65.000 77.335 C 65.000 77.408,65.375 77.557,65.833 77.667 C 66.292 77.777,66.667 77.931,66.667 78.009 C 66.667 78.087,66.929 78.201,67.250 78.261 C 67.571 78.321,67.833 78.430,67.833 78.502 C 67.833 78.574,68.208 78.723,68.667 78.833 C 69.125 78.943,69.500 79.097,69.500 79.176 C 69.500 79.254,69.762 79.367,70.083 79.428 C 70.404 79.488,70.667 79.600,70.667 79.678 C 70.667 79.755,70.929 79.867,71.250 79.928 C 71.571 79.988,71.833 80.097,71.833 80.170 C 71.833 80.243,72.208 80.399,72.667 80.516 C 73.125 80.634,73.500 80.785,73.500 80.852 C 73.500 80.919,73.744 81.026,74.042 81.091 C 74.340 81.156,74.629 81.280,74.684 81.367 C 74.740 81.454,75.096 81.567,75.476 81.618 L 76.167 81.711 76.167 56.021 L 76.167 30.332 75.417 30.131 C 75.004 30.021,74.667 29.877,74.667 29.812 C 74.667 29.747,74.442 29.644,74.167 29.583 C 73.892 29.523,73.667 29.413,73.667 29.339 C 73.667 29.264,73.404 29.155,73.083 29.094 C 72.762 29.034,72.500 28.921,72.500 28.842 C 72.500 28.764,72.125 28.610,71.667 28.500 C 71.208 28.390,70.833 28.236,70.833 28.158 C 70.833 28.079,70.571 27.966,70.250 27.906 C 69.929 27.845,69.667 27.733,69.667 27.656 C 69.667 27.578,69.404 27.466,69.083 27.406 C 68.762 27.345,68.500 27.237,68.500 27.164 C 68.500 27.091,68.125 26.935,67.667 26.817 C 67.208 26.700,66.833 26.549,66.833 26.482 C 66.833 26.415,66.608 26.310,66.333 26.250 C 66.058 26.190,65.833 26.071,65.833 25.987 C 65.833 25.902,65.699 25.833,65.535 25.833 C 65.371 25.833,64.951 25.688,64.602 25.510 C 64.253 25.332,63.750 25.138,63.484 25.080 C 63.218 25.021,63.000 24.908,63.000 24.828 C 63.000 24.747,62.737 24.633,62.417 24.572 C 62.096 24.512,61.833 24.411,61.833 24.348 C 61.833 24.221,60.844 23.833,60.518 23.833 C 60.403 23.833,60.197 23.721,60.060 23.583 C 59.922 23.446,59.627 23.333,59.405 23.333 C 59.182 23.333,59.000 23.273,59.000 23.200 C 59.000 23.044,58.019 22.667,57.613 22.667 C 57.459 22.667,57.333 22.606,57.333 22.532 C 57.333 22.345,56.133 21.834,55.422 21.719 L 54.833 21.623 54.833 47.387 " stroke="none" fill="#242729" fill-rule="evenodd"></path><path id="path1" d="" stroke="none" fill="#005555" fill-rule="evenodd"></path><path id="path2" d="" stroke="none" fill="#339999" fill-rule="evenodd"></path><path id="path3" d="M75.417 11.955 C 75.233 11.999,74.769 12.177,74.384 12.351 C 74.000 12.525,73.587 12.669,73.467 12.672 C 73.348 12.675,72.950 12.823,72.583 13.000 C 72.217 13.177,71.785 13.325,71.625 13.328 C 71.465 13.331,71.333 13.400,71.333 13.481 C 71.333 13.563,71.056 13.682,70.717 13.745 C 70.378 13.809,69.949 13.967,69.763 14.097 C 69.578 14.227,69.326 14.333,69.204 14.333 C 69.082 14.333,68.630 14.487,68.199 14.676 C 67.769 14.864,67.267 15.083,67.083 15.161 C 66.900 15.240,66.150 15.511,65.417 15.764 C 64.683 16.016,64.008 16.277,63.917 16.342 C 63.825 16.408,63.506 16.514,63.208 16.577 C 62.910 16.641,62.667 16.762,62.667 16.847 C 62.667 16.931,62.548 17.000,62.403 17.000 C 62.182 17.000,61.129 17.370,59.583 17.991 C 59.400 18.065,59.040 18.210,58.782 18.313 C 58.091 18.591,58.865 19.209,60.381 19.589 C 60.630 19.652,60.833 19.761,60.833 19.833 C 60.833 19.904,61.096 20.012,61.417 20.072 C 61.737 20.133,62.000 20.253,62.000 20.341 C 62.000 20.428,62.131 20.502,62.292 20.505 C 62.452 20.508,62.958 20.695,63.417 20.920 C 63.875 21.146,64.375 21.331,64.528 21.332 C 64.681 21.333,64.831 21.390,64.861 21.458 C 64.892 21.527,65.367 21.763,65.917 21.982 C 66.467 22.202,67.231 22.521,67.616 22.691 C 68.000 22.861,68.394 23.000,68.491 23.000 C 68.588 23.000,68.667 23.075,68.667 23.167 C 68.667 23.258,68.793 23.333,68.947 23.333 C 69.102 23.333,69.571 23.488,69.989 23.677 C 70.408 23.866,71.012 24.135,71.333 24.275 C 71.654 24.414,72.179 24.663,72.500 24.827 C 72.821 24.991,73.327 25.178,73.625 25.242 C 73.923 25.307,74.167 25.421,74.167 25.495 C 74.167 25.569,74.429 25.679,74.750 25.739 C 75.071 25.799,75.333 25.925,75.333 26.019 C 75.333 26.113,75.502 26.166,75.708 26.137 L 76.083 26.083 76.083 19.014 C 76.083 14.436,76.025 11.932,75.917 11.909 C 75.825 11.890,75.600 11.910,75.417 11.955 M24.720 12.718 C 24.429 12.827,24.135 12.973,24.068 13.042 C 24.000 13.110,23.826 13.167,23.681 13.168 C 23.535 13.168,23.229 13.266,23.000 13.385 C 22.771 13.504,22.225 13.702,21.787 13.824 C 21.350 13.946,20.951 14.110,20.903 14.190 C 20.854 14.269,20.649 14.336,20.448 14.339 C 20.248 14.342,19.783 14.490,19.417 14.667 C 19.050 14.844,18.619 14.991,18.458 14.994 C 18.298 14.997,18.167 15.075,18.167 15.167 C 18.167 15.258,18.055 15.333,17.918 15.333 C 17.584 15.333,15.125 16.173,14.925 16.355 C 14.838 16.435,14.650 16.503,14.508 16.506 C 14.366 16.509,13.950 16.656,13.583 16.833 C 13.217 17.010,12.781 17.158,12.616 17.161 C 12.338 17.166,11.118 17.642,10.479 17.994 C 10.330 18.077,9.955 18.192,9.646 18.250 C 8.325 18.501,8.177 19.135,9.358 19.486 C 9.757 19.604,10.158 19.760,10.250 19.831 C 10.342 19.903,10.660 20.014,10.958 20.077 C 11.256 20.141,11.500 20.262,11.500 20.347 C 11.500 20.431,11.634 20.500,11.798 20.500 C 11.962 20.500,12.390 20.650,12.750 20.833 C 13.110 21.017,13.470 21.167,13.552 21.167 C 13.633 21.167,13.936 21.270,14.225 21.395 C 16.287 22.293,16.834 22.500,17.146 22.500 C 17.341 22.500,17.500 22.567,17.500 22.649 C 17.500 22.730,17.706 22.845,17.958 22.904 C 18.384 23.004,18.972 23.249,20.000 23.756 C 20.229 23.869,20.660 24.014,20.958 24.077 C 21.256 24.141,21.500 24.262,21.500 24.347 C 21.500 24.431,21.617 24.500,21.759 24.500 C 21.902 24.500,22.336 24.645,22.723 24.821 C 23.111 24.998,23.651 25.197,23.922 25.263 C 24.194 25.330,24.464 25.458,24.523 25.547 C 24.581 25.636,24.919 25.718,25.273 25.729 L 25.917 25.750 25.917 19.167 C 25.917 11.784,26.001 12.237,24.720 12.718 M50.264 21.478 C 50.208 21.568,49.939 21.690,49.665 21.750 C 49.391 21.811,48.847 22.030,48.457 22.237 C 48.067 22.444,47.460 22.709,47.108 22.825 C 46.756 22.941,46.269 23.140,46.026 23.267 C 45.782 23.394,45.490 23.498,45.375 23.499 C 45.260 23.500,45.167 23.575,45.167 23.667 C 45.167 23.758,45.033 23.833,44.869 23.833 C 44.705 23.833,44.285 23.979,43.936 24.157 C 43.586 24.335,43.083 24.528,42.817 24.587 C 42.551 24.645,42.333 24.762,42.333 24.847 C 42.333 24.931,42.240 25.000,42.125 25.001 C 42.010 25.002,41.718 25.106,41.474 25.233 C 41.231 25.360,40.744 25.559,40.392 25.675 C 40.040 25.791,39.421 26.062,39.018 26.276 C 38.614 26.491,38.206 26.667,38.111 26.667 C 38.016 26.667,37.615 26.817,37.219 27.000 C 36.486 27.340,35.185 27.917,34.583 28.170 C 32.168 29.185,30.887 29.742,30.750 29.838 C 30.658 29.902,30.377 30.003,30.125 30.064 L 29.667 30.173 29.667 55.920 L 29.667 81.667 30.099 81.667 C 30.337 81.667,30.731 81.566,30.974 81.442 C 31.722 81.062,32.515 80.714,34.250 80.001 C 35.167 79.625,36.067 79.250,36.250 79.168 C 37.315 78.693,39.116 77.944,39.641 77.757 C 40.206 77.556,41.260 77.095,42.935 76.318 C 43.312 76.143,43.675 76.000,43.743 76.000 C 43.811 76.000,44.103 75.893,44.391 75.762 C 45.762 75.143,46.867 74.671,48.167 74.151 C 48.946 73.839,49.621 73.537,49.667 73.479 C 49.712 73.422,49.994 73.322,50.292 73.258 C 50.655 73.179,50.862 73.021,50.921 72.778 C 51.186 71.676,50.912 21.420,50.641 21.368 C 50.489 21.339,50.319 21.388,50.264 21.478 M100.500 21.981 C 100.500 22.063,100.237 22.179,99.917 22.239 C 99.596 22.299,99.333 22.405,99.333 22.473 C 99.333 22.542,99.052 22.682,98.708 22.784 C 97.703 23.084,96.424 23.574,96.332 23.695 C 96.285 23.757,96.022 23.862,95.748 23.929 C 95.474 23.996,94.989 24.190,94.669 24.359 C 94.350 24.528,93.956 24.667,93.794 24.667 C 93.632 24.667,93.500 24.742,93.500 24.833 C 93.500 24.925,93.369 25.003,93.208 25.006 C 93.048 25.009,92.617 25.156,92.250 25.333 C 91.883 25.510,91.492 25.658,91.380 25.661 C 91.202 25.666,90.330 26.053,89.461 26.513 C 89.301 26.598,89.091 26.667,88.993 26.667 C 88.797 26.667,87.517 27.198,86.778 27.586 C 86.519 27.722,86.230 27.833,86.137 27.833 C 86.043 27.833,85.731 27.941,85.442 28.073 C 85.153 28.205,84.429 28.508,83.833 28.747 C 83.237 28.986,82.600 29.249,82.417 29.332 C 81.248 29.858,80.541 30.139,80.250 30.193 C 79.918 30.254,79.917 30.386,79.917 55.919 L 79.917 81.583 80.577 81.561 C 80.940 81.549,81.265 81.455,81.299 81.353 C 81.333 81.250,81.475 81.167,81.613 81.167 C 81.752 81.167,82.064 81.062,82.308 80.933 C 82.683 80.735,83.976 80.184,85.250 79.678 C 85.433 79.605,85.929 79.385,86.352 79.189 C 86.774 78.994,87.161 78.833,87.212 78.833 C 87.262 78.833,87.864 78.571,88.549 78.250 C 89.234 77.929,89.848 77.667,89.914 77.667 C 90.027 77.667,90.653 77.411,91.750 76.917 C 92.284 76.676,92.781 76.463,94.500 75.740 C 95.096 75.489,96.052 75.070,96.625 74.809 C 97.199 74.547,97.724 74.331,97.792 74.328 C 97.861 74.325,98.217 74.177,98.583 74.000 C 98.950 73.823,99.344 73.675,99.458 73.672 C 99.573 73.669,99.667 73.600,99.667 73.519 C 99.667 73.437,99.916 73.324,100.221 73.266 C 100.526 73.209,100.938 73.011,101.137 72.825 L 101.500 72.487 101.500 47.424 C 101.500 33.639,101.454 22.242,101.399 22.097 C 101.294 21.823,100.500 21.721,100.500 21.981 M270.803 41.753 C 270.765 41.790,269.880 41.901,268.835 42.000 C 267.791 42.098,266.857 42.244,266.760 42.324 C 266.663 42.404,266.226 42.522,265.790 42.587 C 265.353 42.652,264.960 42.764,264.915 42.836 C 264.871 42.908,264.459 43.057,264.001 43.167 C 263.542 43.277,263.167 43.426,263.167 43.498 C 263.167 43.570,262.904 43.679,262.583 43.739 C 262.262 43.799,262.000 43.914,262.000 43.994 C 262.000 44.075,261.775 44.190,261.500 44.250 C 261.225 44.310,261.000 44.420,261.000 44.493 C 261.000 44.566,260.756 44.726,260.458 44.848 C 260.160 44.970,259.826 45.147,259.714 45.243 C 259.445 45.473,259.212 45.654,258.417 46.247 C 257.542 46.898,255.696 48.741,255.075 49.583 C 254.805 49.950,254.508 50.341,254.417 50.453 C 253.823 51.174,253.482 51.765,252.657 53.500 C 252.287 54.279,251.919 55.036,251.840 55.183 C 251.760 55.329,251.597 55.873,251.477 56.391 C 251.356 56.909,251.208 57.333,251.148 57.333 C 251.088 57.333,250.985 57.840,250.920 58.458 C 250.854 59.077,250.719 59.683,250.619 59.805 C 250.375 60.103,250.369 66.887,250.612 67.195 C 250.709 67.317,250.838 67.864,250.900 68.410 C 250.961 68.957,251.067 69.444,251.135 69.494 C 251.203 69.543,251.351 70.033,251.463 70.583 C 251.575 71.133,251.742 71.608,251.833 71.639 C 251.925 71.669,252.000 71.810,252.000 71.952 C 252.000 73.874,256.944 80.154,259.667 81.690 C 259.987 81.871,260.700 82.276,261.250 82.589 C 261.800 82.902,262.438 83.235,262.667 83.329 C 262.896 83.423,263.198 83.566,263.339 83.646 C 263.479 83.726,263.841 83.845,264.142 83.911 C 264.443 83.977,264.890 84.136,265.136 84.265 C 265.382 84.393,265.722 84.498,265.891 84.499 C 266.060 84.500,266.623 84.630,267.141 84.788 C 268.297 85.142,275.205 85.198,276.542 84.864 C 276.977 84.756,277.686 84.591,278.118 84.499 C 278.550 84.406,278.977 84.256,279.068 84.165 C 279.159 84.074,279.338 84.000,279.466 84.000 C 279.801 84.000,283.424 82.341,283.917 81.962 C 284.008 81.892,284.646 81.410,285.333 80.891 C 286.660 79.890,288.333 78.278,288.333 78.000 C 288.333 77.908,288.397 77.833,288.476 77.833 C 288.554 77.833,288.944 77.365,289.342 76.792 C 289.740 76.219,290.112 75.712,290.168 75.667 C 290.371 75.500,292.167 71.774,292.168 71.516 C 292.168 71.370,292.284 71.028,292.426 70.757 C 292.567 70.487,292.728 69.924,292.784 69.507 C 292.839 69.091,292.944 68.711,293.017 68.662 C 293.330 68.455,293.833 61.667,293.535 61.667 C 293.451 61.667,293.339 60.986,293.285 60.154 C 293.231 59.322,293.116 58.554,293.029 58.446 C 292.942 58.338,292.819 57.866,292.756 57.397 C 292.693 56.928,292.535 56.338,292.404 56.086 C 292.273 55.834,292.164 55.543,292.161 55.439 C 292.158 55.335,292.010 54.950,291.833 54.583 C 291.656 54.217,291.509 53.823,291.506 53.708 C 291.503 53.594,291.425 53.500,291.333 53.500 C 291.242 53.500,291.167 53.413,291.167 53.306 C 291.167 53.027,289.730 50.617,289.263 50.113 C 289.046 49.879,288.840 49.605,288.807 49.505 C 288.709 49.209,285.791 46.327,285.292 46.032 C 285.040 45.883,284.833 45.703,284.833 45.631 C 284.833 45.559,284.762 45.500,284.675 45.500 C 284.588 45.500,284.194 45.284,283.800 45.019 C 282.921 44.429,280.431 43.232,279.750 43.072 C 279.475 43.007,279.175 42.896,279.083 42.826 C 278.992 42.756,278.542 42.643,278.083 42.576 C 277.625 42.509,277.212 42.397,277.167 42.327 C 277.007 42.084,271.012 41.543,270.803 41.753 M119.833 63.564 L 119.833 84.128 120.208 84.228 C 120.700 84.360,147.227 84.364,147.570 84.232 C 147.795 84.146,147.833 83.736,147.833 81.399 L 147.833 78.667 136.833 78.667 L 125.833 78.667 125.833 72.250 L 125.833 65.833 135.500 65.833 L 145.167 65.833 145.167 63.000 L 145.167 60.167 135.500 60.167 L 125.833 60.167 125.833 54.335 L 125.833 48.503 136.292 48.460 L 146.750 48.417 146.796 45.708 L 146.842 43.000 133.337 43.000 L 119.833 43.000 119.833 63.564 M151.667 43.085 C 151.667 43.132,151.942 43.563,152.278 44.043 C 152.615 44.524,153.046 45.142,153.237 45.417 C 153.427 45.692,153.677 45.977,153.792 46.050 C 153.906 46.123,154.000 46.261,154.000 46.357 C 154.000 46.453,154.131 46.703,154.292 46.913 C 154.452 47.123,154.696 47.466,154.833 47.675 C 154.971 47.884,155.215 48.193,155.375 48.361 C 155.535 48.529,155.667 48.705,155.667 48.752 C 155.667 48.798,155.942 49.230,156.278 49.710 C 156.615 50.190,157.046 50.808,157.237 51.083 C 157.427 51.358,157.677 51.643,157.792 51.717 C 157.906 51.790,158.000 51.959,158.000 52.092 C 158.000 52.225,158.070 52.333,158.155 52.333 C 158.241 52.333,158.356 52.474,158.410 52.647 C 158.465 52.819,158.656 53.138,158.835 53.355 C 159.312 53.934,159.369 54.012,159.916 54.833 C 160.191 55.246,160.510 55.643,160.625 55.717 C 160.739 55.790,160.833 55.959,160.833 56.092 C 160.833 56.225,160.899 56.333,160.980 56.333 C 161.060 56.333,161.219 56.558,161.333 56.833 C 161.447 57.108,161.588 57.334,161.645 57.334 C 161.703 57.335,161.937 57.616,162.165 57.959 C 162.394 58.303,162.624 58.621,162.678 58.667 C 162.732 58.712,163.126 59.275,163.552 59.917 C 163.979 60.558,164.431 61.196,164.556 61.333 C 165.391 62.248,165.399 62.391,164.672 63.440 C 164.301 63.977,163.904 64.557,163.790 64.728 C 163.676 64.899,163.452 65.210,163.292 65.421 C 163.131 65.631,163.000 65.881,163.000 65.976 C 163.000 66.072,162.906 66.210,162.792 66.283 C 162.568 66.427,161.833 67.423,161.833 67.584 C 161.833 67.637,161.759 67.771,161.669 67.882 C 160.940 68.776,160.667 69.147,160.667 69.242 C 160.667 69.303,160.423 69.678,160.125 70.074 C 159.827 70.471,159.471 70.965,159.333 71.172 C 159.196 71.380,158.858 71.858,158.583 72.235 C 158.308 72.612,157.774 73.370,157.397 73.918 C 157.019 74.467,156.382 75.389,155.980 75.967 C 155.579 76.544,155.175 77.144,155.083 77.300 C 154.992 77.456,154.879 77.621,154.833 77.667 C 154.744 77.756,153.792 79.141,152.428 81.167 C 151.965 81.854,151.544 82.454,151.493 82.500 C 151.174 82.783,150.650 83.884,150.732 84.097 C 150.864 84.441,157.845 84.385,157.960 84.039 C 157.998 83.922,158.136 83.722,158.265 83.592 C 158.394 83.463,158.500 83.309,158.500 83.251 C 158.500 83.192,158.688 82.899,158.917 82.598 C 159.146 82.298,159.333 81.997,159.333 81.931 C 159.333 81.864,159.427 81.712,159.542 81.592 C 159.656 81.472,159.844 81.234,159.959 81.062 C 161.540 78.699,162.157 77.718,162.161 77.559 C 162.164 77.455,162.279 77.326,162.417 77.273 C 162.554 77.220,162.667 77.094,162.667 76.993 C 162.667 76.892,162.760 76.705,162.875 76.577 C 163.283 76.123,163.432 75.906,163.907 75.083 C 164.171 74.625,164.432 74.212,164.486 74.167 C 164.631 74.043,166.000 72.003,166.000 71.910 C 166.000 71.866,166.262 71.456,166.583 71.000 C 166.904 70.544,167.167 70.094,167.167 70.002 C 167.167 69.909,167.223 69.833,167.292 69.833 C 167.360 69.833,167.638 69.477,167.909 69.041 C 168.181 68.606,168.447 68.212,168.502 68.167 C 168.556 68.121,168.772 67.802,168.981 67.458 C 169.460 66.669,169.482 66.672,170.078 67.625 C 170.351 68.061,170.651 68.501,170.745 68.605 C 170.839 68.708,171.009 68.933,171.122 69.105 C 171.235 69.276,171.516 69.701,171.747 70.049 C 171.978 70.397,172.167 70.719,172.167 70.764 C 172.167 70.810,172.244 70.938,172.340 71.049 C 172.654 71.415,174.333 74.035,174.333 74.159 C 174.333 74.227,174.483 74.417,174.667 74.583 C 174.850 74.749,175.000 74.954,175.000 75.038 C 175.000 75.122,175.094 75.288,175.208 75.408 C 175.323 75.528,175.509 75.766,175.623 75.938 C 175.736 76.110,176.242 76.874,176.748 77.636 C 177.253 78.398,177.667 79.057,177.667 79.101 C 177.667 79.183,178.349 80.186,178.505 80.333 C 178.554 80.379,179.059 81.129,179.628 82.000 C 180.197 82.871,180.779 83.733,180.921 83.917 C 181.205 84.285,187.967 84.524,188.485 84.185 C 188.773 83.996,188.528 83.296,187.952 82.658 C 187.749 82.434,187.307 81.837,186.970 81.333 C 186.633 80.829,185.825 79.667,185.175 78.750 C 184.525 77.833,183.944 76.971,183.884 76.833 C 183.824 76.696,183.676 76.523,183.554 76.450 C 183.433 76.377,183.333 76.208,183.333 76.075 C 183.333 75.942,183.267 75.833,183.187 75.833 C 183.106 75.833,182.949 75.614,182.838 75.345 C 182.727 75.077,182.531 74.817,182.401 74.767 C 182.272 74.718,182.167 74.562,182.167 74.422 C 182.167 74.282,182.110 74.165,182.042 74.164 C 181.973 74.162,181.692 73.788,181.417 73.333 C 181.142 72.878,180.860 72.505,180.792 72.503 C 180.723 72.501,180.667 72.391,180.667 72.258 C 180.667 72.125,180.572 71.957,180.457 71.883 C 180.341 71.810,180.030 71.416,179.766 71.009 C 179.502 70.601,179.217 70.189,179.134 70.092 C 179.051 69.996,178.681 69.448,178.312 68.875 C 177.943 68.302,177.571 67.833,177.487 67.833 C 177.402 67.833,177.333 67.734,177.333 67.613 C 177.333 67.435,176.525 66.218,175.875 65.417 C 175.800 65.325,175.576 64.984,175.377 64.659 C 175.054 64.132,174.774 63.760,174.149 63.026 C 173.889 62.722,173.909 62.072,174.188 61.765 C 174.583 61.328,174.739 61.119,175.686 59.750 C 177.077 57.741,178.456 55.790,178.744 55.424 C 178.885 55.245,179.000 55.002,179.000 54.883 C 179.000 54.764,179.064 54.667,179.143 54.667 C 179.222 54.667,179.553 54.273,179.880 53.792 C 180.207 53.310,180.780 52.485,181.154 51.957 C 181.528 51.429,181.833 50.929,181.833 50.845 C 181.833 50.762,181.894 50.669,181.969 50.639 C 182.172 50.555,183.500 48.707,183.500 48.507 C 183.500 48.412,183.556 48.330,183.625 48.326 C 183.694 48.322,184.088 47.831,184.500 47.235 C 184.912 46.639,185.719 45.500,186.292 44.704 C 186.865 43.908,187.333 43.199,187.333 43.128 C 187.333 42.896,180.001 42.974,179.778 43.208 C 179.669 43.323,179.244 43.942,178.833 44.583 C 178.423 45.225,177.993 45.849,177.877 45.970 C 177.761 46.091,177.667 46.255,177.667 46.333 C 177.667 46.412,177.573 46.577,177.458 46.701 C 177.067 47.123,176.500 47.986,176.500 48.160 C 176.500 48.255,176.430 48.333,176.345 48.333 C 176.259 48.333,176.144 48.474,176.090 48.647 C 176.035 48.819,175.861 49.115,175.703 49.305 C 175.469 49.586,173.935 51.876,173.250 52.966 C 173.158 53.112,172.952 53.381,172.792 53.564 C 172.631 53.747,172.500 53.995,172.500 54.115 C 172.500 54.235,172.442 54.333,172.371 54.333 C 172.300 54.333,172.103 54.592,171.932 54.909 C 171.762 55.226,171.500 55.619,171.351 55.784 C 171.202 55.949,170.780 56.551,170.415 57.124 C 169.671 58.288,169.573 58.343,169.303 57.750 C 169.199 57.521,169.050 57.333,168.973 57.333 C 168.896 57.333,168.833 57.218,168.833 57.078 C 168.833 56.938,168.721 56.780,168.583 56.727 C 168.446 56.674,168.333 56.569,168.333 56.492 C 168.333 56.416,167.865 55.671,167.292 54.836 C 166.719 54.002,166.175 53.191,166.083 53.035 C 165.815 52.576,164.606 50.768,164.420 50.547 C 164.327 50.436,164.156 50.233,164.042 50.096 C 163.927 49.959,163.833 49.803,163.833 49.749 C 163.833 49.657,162.517 47.684,162.333 47.500 C 162.089 47.256,161.500 46.324,161.500 46.182 C 161.500 46.091,161.405 45.957,161.288 45.883 C 161.172 45.810,160.986 45.544,160.875 45.292 C 160.764 45.040,160.597 44.833,160.504 44.833 C 160.410 44.833,160.333 44.718,160.333 44.578 C 160.333 44.438,160.221 44.280,160.083 44.227 C 159.946 44.174,159.833 44.038,159.833 43.924 C 159.833 43.083,159.438 43.000,155.439 43.000 C 153.364 43.000,151.667 43.038,151.667 43.085 M192.874 63.616 L 192.917 84.250 195.750 84.250 L 198.583 84.250 198.626 75.125 L 198.670 66.000 204.406 66.000 C 209.709 66.000,212.619 65.831,212.832 65.511 C 212.879 65.442,213.142 65.332,213.417 65.268 C 215.143 64.867,219.000 61.931,219.000 61.018 C 219.000 60.917,219.075 60.833,219.167 60.833 C 219.258 60.833,219.333 60.738,219.333 60.623 C 219.333 60.507,219.478 60.142,219.655 59.812 C 219.832 59.482,220.029 58.920,220.093 58.564 C 220.158 58.208,220.294 57.811,220.397 57.683 C 220.519 57.530,220.583 56.425,220.583 54.500 C 220.583 52.575,220.519 51.470,220.397 51.317 C 220.294 51.189,220.160 50.805,220.099 50.465 C 219.936 49.562,219.163 47.972,218.624 47.433 C 218.464 47.274,218.333 47.036,218.333 46.905 C 218.333 46.774,218.277 46.664,218.208 46.661 C 218.140 46.658,217.678 46.290,217.183 45.843 C 216.208 44.963,214.548 44.056,212.833 43.466 C 211.770 43.099,211.578 43.092,202.291 43.037 L 192.832 42.982 192.874 63.616 M225.500 63.564 L 225.500 84.128 225.875 84.228 C 226.651 84.436,249.922 84.345,250.133 84.133 C 250.272 83.995,250.333 83.126,250.333 81.300 L 250.333 78.667 240.833 78.667 L 231.333 78.667 231.333 60.833 L 231.333 43.000 228.417 43.000 L 225.500 43.000 225.500 63.564 M298.833 63.554 L 298.833 84.128 299.208 84.228 C 299.415 84.284,300.727 84.330,302.125 84.331 L 304.667 84.333 304.667 75.167 L 304.667 66.000 307.625 66.001 L 310.583 66.002 310.895 66.543 C 311.067 66.840,311.363 67.383,311.553 67.750 C 311.743 68.117,311.946 68.454,312.003 68.500 C 312.061 68.546,312.325 69.015,312.589 69.542 C 312.853 70.069,313.123 70.500,313.188 70.500 C 313.253 70.500,313.356 70.725,313.417 71.000 C 313.477 71.275,313.587 71.500,313.660 71.500 C 313.733 71.500,314.002 71.912,314.257 72.417 C 314.512 72.921,314.776 73.333,314.843 73.333 C 314.909 73.333,315.010 73.518,315.067 73.744 C 315.124 73.970,315.383 74.476,315.644 74.869 C 315.905 75.262,316.361 76.033,316.658 76.583 C 316.955 77.133,317.258 77.658,317.331 77.750 C 317.476 77.931,317.929 78.727,318.707 80.167 C 318.980 80.671,319.270 81.108,319.351 81.139 C 319.433 81.169,319.500 81.278,319.500 81.379 C 319.500 81.649,320.848 83.882,321.155 84.120 C 321.340 84.264,322.401 84.324,324.797 84.328 C 328.674 84.334,328.680 84.332,327.857 83.045 C 327.361 82.269,326.587 81.021,325.917 79.913 C 325.733 79.610,325.251 78.812,324.844 78.139 C 324.438 77.467,324.006 76.818,323.886 76.696 C 323.765 76.575,323.667 76.413,323.667 76.336 C 323.667 76.194,322.660 74.583,322.341 74.215 C 322.245 74.105,322.167 73.972,322.167 73.920 C 322.167 73.825,321.325 72.487,321.168 72.333 C 321.069 72.236,320.601 71.429,320.299 70.833 C 320.182 70.604,320.011 70.326,319.919 70.214 C 319.529 69.746,319.404 69.558,319.167 69.083 C 319.030 68.808,318.878 68.546,318.830 68.500 C 318.782 68.454,318.651 68.229,318.537 68.000 C 318.424 67.771,318.037 67.133,317.677 66.583 C 316.851 65.320,316.836 65.397,317.928 65.284 C 318.439 65.231,318.945 65.117,319.053 65.030 C 319.161 64.943,319.482 64.822,319.765 64.762 C 320.970 64.505,323.979 62.151,324.914 60.735 C 327.746 56.442,327.220 49.610,323.801 46.296 C 323.017 45.536,320.924 44.167,320.546 44.167 C 320.444 44.167,320.336 44.110,320.306 44.042 C 320.275 43.973,319.725 43.731,319.083 43.504 L 317.917 43.092 308.375 43.036 L 298.833 42.980 298.833 63.554 M333.374 63.625 L 333.417 84.250 347.333 84.250 L 361.250 84.250 361.296 81.458 L 361.341 78.667 350.337 78.667 L 339.333 78.667 339.333 72.250 L 339.333 65.833 349.064 65.833 L 358.794 65.833 358.895 65.458 C 358.950 65.252,358.995 64.146,358.995 63.000 C 358.995 61.854,358.950 60.748,358.895 60.542 L 358.794 60.167 349.064 60.167 L 339.333 60.167 339.333 54.335 L 339.333 48.503 349.792 48.460 L 360.250 48.417 360.296 45.708 L 360.342 43.000 346.837 43.000 L 333.332 43.000 333.374 63.625 M367.167 63.564 L 367.167 84.128 367.542 84.228 C 368.033 84.360,372.562 84.363,372.903 84.232 C 373.139 84.142,373.167 83.178,373.167 75.066 L 373.167 66.000 376.083 66.000 C 378.565 66.000,379.000 66.037,379.000 66.250 C 379.000 66.387,379.066 66.500,379.147 66.500 C 379.228 66.500,379.336 66.631,379.387 66.792 C 379.478 67.077,380.002 68.002,380.167 68.167 C 380.212 68.212,380.351 68.429,380.474 68.648 C 380.597 68.867,380.852 69.317,381.040 69.648 C 381.228 69.979,381.609 70.662,381.885 71.167 C 382.162 71.671,382.441 72.121,382.505 72.167 C 382.569 72.212,382.679 72.438,382.750 72.667 C 382.821 72.896,382.928 73.121,382.989 73.167 C 383.170 73.303,385.167 76.793,385.167 76.973 C 385.167 77.064,385.233 77.164,385.315 77.194 C 385.447 77.244,386.252 78.619,386.736 79.624 C 386.836 79.829,386.973 79.998,387.042 79.999 C 387.110 79.999,387.167 80.082,387.167 80.183 C 387.167 80.436,388.965 83.497,389.384 83.958 C 389.716 84.324,389.813 84.333,393.079 84.333 C 397.281 84.333,397.145 84.432,395.793 82.361 C 395.634 82.117,395.411 81.729,395.297 81.500 C 395.183 81.271,395.045 81.046,394.990 81.000 C 394.935 80.954,394.671 80.523,394.403 80.042 C 394.136 79.561,393.860 79.167,393.792 79.167 C 393.723 79.167,393.667 79.069,393.667 78.951 C 393.667 78.832,393.554 78.588,393.417 78.409 C 392.919 77.760,392.333 76.815,392.333 76.659 C 392.333 76.572,392.277 76.500,392.208 76.499 C 392.140 76.499,391.861 76.087,391.589 75.583 C 391.317 75.079,391.036 74.667,390.964 74.667 C 390.892 74.667,390.833 74.566,390.833 74.442 C 390.833 74.319,390.683 74.045,390.500 73.833 C 390.317 73.622,390.167 73.382,390.167 73.301 C 390.167 73.123,389.468 72.106,389.292 72.028 C 389.223 71.997,389.167 71.889,389.167 71.787 C 389.167 71.626,388.408 70.400,388.164 70.167 C 388.116 70.121,387.983 69.896,387.868 69.667 C 387.754 69.438,387.478 68.950,387.255 68.583 C 387.032 68.217,386.795 67.804,386.728 67.667 C 386.662 67.529,386.564 67.379,386.512 67.333 C 386.407 67.242,385.333 65.508,385.333 65.429 C 385.333 65.403,385.802 65.332,386.375 65.272 C 386.948 65.212,387.442 65.089,387.472 64.998 C 387.503 64.908,387.653 64.833,387.806 64.832 C 388.236 64.829,389.746 64.035,390.812 63.251 C 391.366 62.843,393.000 61.200,393.000 61.050 C 393.000 60.959,393.150 60.749,393.333 60.583 C 393.517 60.417,393.667 60.187,393.667 60.071 C 393.667 59.956,393.726 59.836,393.799 59.806 C 394.029 59.709,394.667 58.041,394.775 57.255 C 394.832 56.840,394.943 56.500,395.023 56.500 C 395.213 56.500,395.209 52.793,395.019 52.300 C 394.938 52.089,394.785 51.447,394.679 50.873 C 394.507 49.941,393.753 48.204,393.218 47.508 C 392.304 46.320,390.354 44.667,389.866 44.667 C 389.756 44.667,389.667 44.592,389.667 44.500 C 389.667 44.408,389.588 44.333,389.491 44.333 C 389.337 44.333,388.478 43.986,387.417 43.494 C 386.557 43.096,384.401 43.002,376.042 43.001 L 367.167 43.000 367.167 63.564 M273.568 47.476 C 273.617 47.554,274.174 47.666,274.808 47.725 C 275.441 47.784,276.175 47.944,276.438 48.082 C 276.701 48.219,277.015 48.332,277.134 48.332 C 279.323 48.343,284.035 52.671,285.571 56.083 C 285.818 56.633,286.086 57.205,286.166 57.354 C 286.245 57.504,286.363 57.916,286.427 58.271 C 286.491 58.626,286.608 58.999,286.687 59.099 C 287.226 59.782,287.220 66.949,286.680 67.958 C 286.594 68.119,286.399 68.662,286.246 69.167 C 285.147 72.790,282.442 76.070,279.108 77.821 C 278.572 78.103,278.028 78.333,277.900 78.333 C 277.772 78.333,277.667 78.402,277.667 78.485 C 277.667 78.569,277.367 78.688,277.000 78.750 C 276.633 78.812,276.333 78.921,276.333 78.993 C 276.333 79.604,268.240 79.594,267.592 78.983 C 267.505 78.901,267.332 78.833,267.208 78.833 C 266.966 78.833,265.580 78.262,265.167 77.992 C 265.029 77.902,264.710 77.747,264.458 77.648 C 264.206 77.549,264.000 77.418,264.000 77.358 C 264.000 77.297,263.770 77.146,263.489 77.022 C 262.772 76.704,259.957 73.860,259.498 72.990 C 259.380 72.766,259.238 72.546,259.182 72.500 C 259.126 72.454,258.868 71.967,258.608 71.417 C 258.349 70.867,258.069 70.286,257.985 70.127 C 257.902 69.968,257.833 69.743,257.832 69.627 C 257.832 69.511,257.725 69.212,257.594 68.962 C 257.464 68.713,257.269 67.925,257.161 67.212 C 257.053 66.500,256.932 65.767,256.893 65.583 C 256.566 64.061,256.991 58.919,257.499 58.250 C 257.569 58.158,257.679 57.896,257.743 57.667 C 257.901 57.103,258.560 55.437,258.665 55.333 C 258.712 55.288,259.123 54.688,259.578 54.000 C 260.357 52.824,262.161 50.889,262.996 50.333 C 263.203 50.196,263.532 49.971,263.728 49.833 C 263.923 49.696,264.458 49.396,264.917 49.167 C 265.375 48.938,265.787 48.708,265.833 48.657 C 266.037 48.430,268.327 47.806,269.282 47.717 C 269.860 47.663,270.333 47.554,270.333 47.476 C 270.333 47.290,273.453 47.290,273.568 47.476 M208.504 48.339 C 210.984 48.643,212.777 49.678,213.591 51.278 C 213.770 51.629,213.992 51.970,214.083 52.036 C 214.511 52.341,214.278 56.388,213.775 57.382 C 212.347 60.206,210.436 60.809,202.875 60.825 L 198.667 60.833 198.667 54.500 L 198.667 48.167 202.879 48.167 C 205.196 48.167,207.728 48.244,208.504 48.339 M314.630 48.347 C 315.520 48.446,316.286 48.590,316.334 48.667 C 316.381 48.744,316.644 48.863,316.917 48.932 C 317.190 49.000,317.513 49.156,317.635 49.278 C 317.757 49.400,317.952 49.500,318.068 49.500 C 318.335 49.500,319.297 50.543,319.838 51.417 C 320.462 52.427,320.465 56.563,319.842 57.583 C 318.258 60.178,316.698 60.675,309.792 60.788 L 304.667 60.871 304.667 54.519 L 304.667 48.167 308.840 48.167 C 311.135 48.167,313.741 48.248,314.630 48.347 M383.083 48.351 C 383.908 48.452,384.621 48.592,384.667 48.663 C 384.712 48.734,384.994 48.844,385.292 48.909 C 385.590 48.974,385.833 49.096,385.833 49.180 C 385.833 49.264,385.940 49.333,386.070 49.333 C 386.709 49.333,388.500 51.528,388.500 52.312 C 388.500 52.496,388.575 52.693,388.667 52.750 C 388.760 52.807,388.833 53.582,388.833 54.500 C 388.833 55.418,388.760 56.193,388.667 56.250 C 388.575 56.307,388.500 56.481,388.500 56.637 C 388.500 57.338,386.867 59.500,386.338 59.500 C 386.257 59.500,386.083 59.607,385.952 59.739 C 385.206 60.485,382.605 60.814,377.375 60.825 L 373.167 60.833 373.167 54.500 L 373.167 48.167 377.375 48.167 C 379.690 48.167,382.258 48.250,383.083 48.351 " stroke="none" fill="#58c5c2" fill-rule="evenodd"></path><path id="path4" d="" stroke="none" fill="#00ffff" fill-rule="evenodd"></path></g></svg>